<?xml version="1.0" encoding="utf-8"?>
<!-- Generator: Adobe Illustrator 27.7.0, SVG Export Plug-In . SVG Version: 6.00 Build 0)  -->
<svg version="1.1" xmlns="http://www.w3.org/2000/svg" xmlns:xlink="http://www.w3.org/1999/xlink" x="0px" y="0px"
	 viewBox="0 0 677.2 968.9" style="enable-background:new 0 0 677.2 968.9;" xml:space="preserve">
<style type="text/css">
	.st0{display:none;}
	.st1{display:inline;fill:#333333;}
	.st2{fill:#FFFFFF;}
	.st3{fill:url(#SVGID_1_);}
	.st4{fill:none;stroke:#FFFFFF;stroke-width:2.5;stroke-miterlimit:10;}
	.st5{fill:none;stroke:#FFFFFF;stroke-width:2.5;stroke-miterlimit:10;stroke-dasharray:0,0,7.88,7.88;}
	.st6{fill:none;stroke:#FFFFFF;stroke-width:2.2;stroke-linecap:round;stroke-linejoin:round;}
	.st7{fill:#00FCED;}
	.st8{fill:#6933FF;}
	.st9{fill:none;stroke:#FFFFFF;stroke-width:2.4;stroke-linecap:round;stroke-miterlimit:10;}
	.st10{fill:none;stroke:#6933FF;stroke-width:2.2;stroke-linecap:round;stroke-linejoin:round;}
	.st11{fill:none;stroke:#00FCED;stroke-width:2.2;stroke-linecap:round;stroke-linejoin:round;}
	.st12{fill:url(#SVGID_00000074440779025384132160000012583336719015484338_);}
	.st13{fill:none;stroke:#6933FF;stroke-width:2;stroke-linecap:round;stroke-linejoin:round;}
	.st14{fill:none;stroke:#FFFFFF;stroke-width:1.9924;stroke-miterlimit:10;}
	.st15{font-family:'Roboto-Regular';}
	.st16{font-size:17px;}
	.st17{fill:none;stroke:#FFFFFF;stroke-width:2.4975;stroke-miterlimit:10;}
	.st18{font-family:'Roboto-LightItalic';}
	.st19{font-size:13px;}
	.st20{font-size:16px;}
	.st21{fill:none;stroke:#FFFFFF;stroke-width:2.5364;stroke-miterlimit:10;}
	.st22{fill:#333333;}
	.st23{fill:none;stroke:#FFFFFF;stroke-miterlimit:10;}
</style>
<g id="BG" class="st0">
	<rect x="0.2" class="st1" width="676.8" height="968.9"/>
</g>
<g id="v6">
	<g>
		<g>
			<path class="st2" d="M297.8,901.2c-0.1,1.3-0.6,2.2-1.4,2.9s-1.8,1-3.1,1c-1.4,0-2.6-0.5-3.4-1.5c-0.9-1-1.3-2.4-1.3-4.1v-1.2
				c0-1.1,0.2-2.1,0.6-2.9c0.4-0.8,1-1.5,1.7-2c0.7-0.5,1.6-0.7,2.5-0.7c1.3,0,2.3,0.4,3.1,1.1c0.8,0.7,1.2,1.7,1.3,3h-1.6
				c-0.1-1-0.4-1.7-0.9-2.1s-1.1-0.6-1.9-0.6c-1,0-1.8,0.4-2.4,1.1c-0.6,0.7-0.9,1.8-0.9,3.2v1.2c0,1.3,0.3,2.3,0.8,3.1
				s1.3,1.2,2.3,1.2c0.9,0,1.6-0.2,2-0.6c0.5-0.4,0.8-1.1,0.9-2.1L297.8,901.2L297.8,901.2z"/>
			<path class="st2" d="M299.3,900.5c0-0.9,0.2-1.7,0.5-2.3c0.3-0.7,0.8-1.2,1.4-1.6c0.6-0.4,1.3-0.6,2.1-0.6c1.2,0,2.2,0.4,2.9,1.3
				s1.1,2,1.1,3.3v0.1c0,0.9-0.2,1.6-0.5,2.3s-0.8,1.2-1.4,1.6c-0.6,0.4-1.3,0.6-2.1,0.6c-1.2,0-2.2-0.4-2.9-1.3
				S299.3,901.9,299.3,900.5L299.3,900.5L299.3,900.5z M300.9,900.7c0,1,0.2,1.8,0.7,2.4s1.1,0.9,1.8,0.9s1.4-0.3,1.8-0.9
				c0.5-0.6,0.7-1.5,0.7-2.5s-0.2-1.8-0.7-2.4c-0.5-0.6-1.1-0.9-1.9-0.9s-1.4,0.3-1.8,0.9C301.1,898.7,300.9,899.5,300.9,900.7
				L300.9,900.7z"/>
			<path class="st2" d="M312.9,903.9c0.5,0,1-0.2,1.4-0.5s0.6-0.7,0.7-1.2h1.4c0,0.5-0.2,1-0.5,1.5s-0.8,0.8-1.3,1.1
				s-1.1,0.4-1.7,0.4c-1.2,0-2.2-0.4-2.9-1.2c-0.7-0.8-1.1-1.9-1.1-3.3v-0.2c0-0.9,0.2-1.6,0.5-2.3s0.8-1.2,1.4-1.6s1.3-0.6,2.1-0.6
				c1,0,1.8,0.3,2.5,0.9c0.7,0.6,1,1.4,1.1,2.3h-1.4c0-0.6-0.3-1-0.6-1.4s-0.9-0.6-1.5-0.6c-0.8,0-1.4,0.3-1.8,0.8
				c-0.4,0.6-0.6,1.4-0.6,2.4v0.3c0,1,0.2,1.8,0.6,2.4S312.1,904,312.9,903.9L312.9,903.9z"/>
			<path class="st2" d="M320.7,900.9l-1,1v3.1h-1.5v-12.6h1.5v7.7l0.8-1l2.8-2.9h1.9l-3.5,3.7l3.9,5.2h-1.8L320.7,900.9L320.7,900.9
				z"/>
			<path class="st2" d="M331,897.5c-0.2,0-0.5-0.1-0.8-0.1c-1,0-1.7,0.4-2,1.3v6.3h-1.5v-8.9h1.5v1c0.5-0.8,1.2-1.2,2.1-1.2
				c0.3,0,0.5,0,0.7,0.1L331,897.5L331,897.5z"/>
			<path class="st2" d="M331.9,900.5c0-0.9,0.2-1.7,0.5-2.3c0.3-0.7,0.8-1.2,1.4-1.6c0.6-0.4,1.3-0.6,2.1-0.6c1.2,0,2.2,0.4,2.9,1.3
				s1.1,2,1.1,3.3v0.1c0,0.9-0.2,1.6-0.5,2.3s-0.8,1.2-1.4,1.6c-0.6,0.4-1.3,0.6-2.1,0.6c-1.2,0-2.2-0.4-2.9-1.3
				S331.9,901.9,331.9,900.5L331.9,900.5L331.9,900.5z M333.4,900.7c0,1,0.2,1.8,0.7,2.4s1.1,0.9,1.8,0.9s1.4-0.3,1.8-0.9
				c0.5-0.6,0.7-1.5,0.7-2.5s-0.2-1.8-0.7-2.4c-0.5-0.6-1.1-0.9-1.9-0.9s-1.4,0.3-1.8,0.9C333.6,898.7,333.4,899.5,333.4,900.7
				L333.4,900.7z"/>
			<path class="st2" d="M347.4,905c-0.1-0.2-0.2-0.5-0.2-0.9c-0.7,0.7-1.5,1.1-2.5,1.1c-0.9,0-1.6-0.2-2.2-0.8s-0.8-1.1-0.8-1.9
				c0-0.9,0.4-1.7,1.1-2.2s1.7-0.8,3-0.8h1.5v-0.7c0-0.5-0.2-1-0.5-1.3s-0.8-0.5-1.4-0.5c-0.5,0-1,0.1-1.4,0.4
				c-0.4,0.3-0.5,0.6-0.5,1H342c0-0.4,0.2-0.9,0.5-1.3s0.7-0.7,1.3-1s1.1-0.4,1.8-0.4c1,0,1.8,0.3,2.4,0.8s0.9,1.2,0.9,2.1v4.1
				c0,0.8,0.1,1.5,0.3,2v0.1h-1.8V905z M344.8,903.9c0.5,0,0.9-0.1,1.4-0.4s0.7-0.6,0.9-1v-1.8h-1.2c-1.9,0-2.8,0.5-2.8,1.6
				c0,0.5,0.2,0.8,0.5,1.1S344.4,903.9,344.8,903.9L344.8,903.9z"/>
			<path class="st2" d="M354.6,903.9c0.5,0,1-0.2,1.4-0.5s0.6-0.7,0.7-1.2h1.4c0,0.5-0.2,1-0.5,1.5s-0.8,0.8-1.3,1.1
				s-1.1,0.4-1.7,0.4c-1.2,0-2.2-0.4-2.9-1.2c-0.7-0.8-1.1-1.9-1.1-3.3v-0.2c0-0.9,0.2-1.6,0.5-2.3s0.8-1.2,1.4-1.6s1.3-0.6,2.1-0.6
				c1,0,1.8,0.3,2.5,0.9c0.7,0.6,1,1.4,1.1,2.3h-1.4c0-0.6-0.3-1-0.6-1.4s-0.9-0.6-1.5-0.6c-0.8,0-1.4,0.3-1.8,0.8
				c-0.4,0.6-0.6,1.4-0.6,2.4v0.3c0,1,0.2,1.8,0.6,2.4S353.8,904,354.6,903.9L354.6,903.9z"/>
			<path class="st2" d="M361.4,897.2c0.7-0.8,1.5-1.2,2.6-1.2c1.9,0,2.8,1.1,2.9,3.2v5.9h-1.5v-5.9c0-0.6-0.1-1.1-0.4-1.4
				c-0.3-0.3-0.7-0.5-1.4-0.5c-0.5,0-0.9,0.1-1.3,0.4s-0.7,0.6-0.9,1v6.3h-1.5v-12.6h1.5L361.4,897.2L361.4,897.2z"/>
			<path class="st2" d="M369.4,905v-12h3.4c1,0,2,0.2,2.8,0.7s1.4,1.1,1.9,2c0.4,0.8,0.7,1.8,0.7,2.9v0.8c0,1.1-0.2,2.1-0.6,3
				c-0.4,0.8-1.1,1.5-1.9,2s-1.8,0.7-2.8,0.7h-3.5V905z M371,894.3v9.4h1.7c1.2,0,2.2-0.4,2.8-1.1c0.7-0.8,1-1.8,1-3.2v-0.7
				c0-1.4-0.3-2.4-1-3.2c-0.6-0.8-1.5-1.1-2.7-1.2H371L371,894.3z"/>
			<path class="st2" d="M380.5,905v-12h3.9c1.3,0,2.3,0.3,2.9,0.8s1,1.3,1,2.4c0,0.6-0.2,1.1-0.5,1.5s-0.8,0.8-1.3,1
				c0.6,0.2,1.2,0.5,1.5,1s0.6,1.1,0.6,1.8c0,1.1-0.4,1.9-1,2.5c-0.7,0.6-1.7,0.9-3,0.9L380.5,905L380.5,905z M382,898.1h2.4
				c0.7,0,1.2-0.2,1.7-0.5s0.6-0.8,0.6-1.4c0-0.7-0.2-1.1-0.6-1.4c-0.4-0.3-1-0.5-1.8-0.5H382L382,898.1L382,898.1z M382,899.4v4.3
				h2.6c0.7,0,1.3-0.2,1.7-0.6c0.4-0.4,0.6-0.9,0.6-1.6c0-1.4-0.8-2.2-2.4-2.2L382,899.4L382,899.4z"/>
			<path class="st2" d="M314.4,919c0.1-0.8-0.4-1.5-1.3-1.8l-1.3-0.5l-0.4-0.2c-1.3-0.5-1.9-1.3-1.8-2.4c0-0.5,0.2-1,0.5-1.4
				s0.8-0.7,1.3-0.9s1.1-0.3,1.7-0.3s1.1,0.2,1.5,0.4s0.8,0.6,1,1s0.3,0.9,0.3,1.5h-0.8c0.1-0.7-0.1-1.2-0.5-1.6s-0.9-0.6-1.6-0.6
				s-1.3,0.2-1.8,0.5s-0.8,0.8-0.9,1.4c-0.1,0.5,0.1,0.8,0.4,1.2c0.3,0.3,0.9,0.6,1.7,0.8c1,0.3,1.8,0.7,2.2,1.2
				c0.4,0.5,0.6,1,0.5,1.7c0,0.5-0.2,1-0.6,1.4c-0.3,0.4-0.8,0.7-1.3,0.9s-1.1,0.3-1.8,0.3c-0.6,0-1.2-0.1-1.7-0.4s-0.9-0.6-1.1-1
				s-0.4-0.9-0.3-1.5h0.8c-0.1,0.7,0.1,1.2,0.5,1.6c0.4,0.4,1,0.6,1.8,0.6s1.4-0.2,1.9-0.5C314.1,920,314.3,919.6,314.4,919
				L314.4,919z"/>
			<path class="st2" d="M319.2,921.6c-0.6,0-1.1-0.2-1.5-0.5s-0.7-0.7-0.9-1.3c-0.2-0.5-0.3-1.1-0.2-1.8v-0.2
				c0.1-0.7,0.3-1.3,0.6-1.9s0.8-1.1,1.3-1.4c0.5-0.3,1.1-0.5,1.6-0.5s1,0.2,1.4,0.4c0.4,0.3,0.6,0.7,0.8,1.2
				c0.2,0.5,0.2,1.1,0.2,1.7v0.5h-5v0.2c-0.1,0.5,0,1,0.1,1.4s0.4,0.8,0.7,1.1s0.7,0.4,1.1,0.4s0.8-0.1,1.2-0.2
				c0.3-0.2,0.7-0.4,1-0.7l0.5,0.4c-0.3,0.4-0.7,0.7-1.2,1C320.3,921.5,319.8,921.6,319.2,921.6L319.2,921.6z M320.1,914.8
				c-0.6,0-1.1,0.2-1.6,0.6c-0.5,0.4-0.8,1-1,1.8h4.2v-0.1c0.1-0.6,0-1.2-0.3-1.6S320.6,914.8,320.1,914.8L320.1,914.8z"/>
			<path class="st2" d="M327.7,914.9c-0.2,0-0.4-0.1-0.5-0.1c-0.5,0-1,0.2-1.4,0.5s-0.7,0.7-0.9,1.2l-0.9,5h-0.8l1.3-7.2h0.8
				l-0.2,1.2c0.3-0.4,0.6-0.8,1-1s0.8-0.3,1.2-0.3c0.2,0,0.3,0,0.5,0.1L327.7,914.9L327.7,914.9z"/>
			<path class="st2" d="M330.4,920.3l3.1-6.1h0.8l-3.8,7.2h-0.6l-1.5-7.2h0.8L330.4,920.3z"/>
			<path class="st2" d="M337.2,921.6c-0.6,0-1.1-0.2-1.5-0.5s-0.7-0.7-0.9-1.3c-0.2-0.5-0.3-1.1-0.2-1.8v-0.2
				c0.1-0.7,0.3-1.3,0.6-1.9s0.8-1.1,1.3-1.4c0.5-0.3,1.1-0.5,1.6-0.5s1,0.2,1.4,0.4c0.4,0.3,0.6,0.7,0.8,1.2
				c0.2,0.5,0.2,1.1,0.2,1.7v0.5h-5v0.2c-0.1,0.5,0,1,0.1,1.4s0.4,0.8,0.7,1.1s0.7,0.4,1.1,0.4s0.8-0.1,1.2-0.2
				c0.3-0.2,0.7-0.4,1-0.7l0.5,0.4c-0.3,0.4-0.7,0.7-1.2,1C338.2,921.5,337.7,921.6,337.2,921.6L337.2,921.6z M338,914.8
				c-0.6,0-1.1,0.2-1.6,0.6c-0.5,0.4-0.8,1-1,1.8h4.2v-0.1c0.1-0.6,0-1.2-0.3-1.6S338.6,914.8,338,914.8L338,914.8z"/>
			<path class="st2" d="M345.7,914.9c-0.2,0-0.4-0.1-0.5-0.1c-0.5,0-1,0.2-1.4,0.5s-0.7,0.7-0.9,1.2l-0.9,5h-0.8l1.3-7.2h0.8
				l-0.2,1.2c0.3-0.4,0.6-0.8,1-1s0.8-0.3,1.2-0.3c0.2,0,0.3,0,0.5,0.1L345.7,914.9L345.7,914.9z"/>
			<path class="st2" d="M346.7,921.5h-0.8l1.8-10.3h0.8L346.7,921.5z"/>
			<path class="st2" d="M351.7,921.6c-0.6,0-1.1-0.2-1.5-0.5s-0.7-0.7-0.9-1.3c-0.2-0.5-0.3-1.1-0.2-1.8v-0.2
				c0.1-0.7,0.3-1.3,0.6-1.9s0.8-1.1,1.3-1.4c0.5-0.3,1.1-0.5,1.6-0.5s1,0.2,1.4,0.4c0.4,0.3,0.6,0.7,0.8,1.2
				c0.2,0.5,0.2,1.1,0.2,1.7v0.5h-5v0.2c-0.1,0.5,0,1,0.1,1.4s0.4,0.8,0.7,1.1s0.7,0.4,1.1,0.4s0.8-0.1,1.2-0.2
				c0.3-0.2,0.7-0.4,1-0.7l0.5,0.4c-0.3,0.4-0.7,0.7-1.2,1C352.7,921.5,352.2,921.6,351.7,921.6L351.7,921.6z M352.5,914.8
				c-0.6,0-1.1,0.2-1.6,0.6c-0.5,0.4-0.8,1-1,1.8h4.2v-0.1c0.1-0.6,0-1.2-0.3-1.6S353.1,914.8,352.5,914.8L352.5,914.8z"/>
			<path class="st2" d="M360.3,919.6c0.1-0.6-0.3-1.1-1.1-1.3l-1.1-0.3c-1.1-0.4-1.6-1-1.5-1.8c0-0.6,0.3-1.1,0.8-1.5
				s1.1-0.6,1.9-0.5c0.7,0,1.3,0.2,1.7,0.6c0.4,0.4,0.6,0.9,0.6,1.6h-0.8c0-0.4-0.1-0.8-0.4-1.1s-0.7-0.4-1.2-0.4s-0.9,0.1-1.3,0.4
				c-0.4,0.2-0.5,0.5-0.6,1c-0.1,0.6,0.3,1,1.1,1.2l0.8,0.2l0.5,0.2c1,0.4,1.5,1,1.4,1.8c0,0.6-0.3,1.1-0.8,1.4s-1.1,0.6-1.8,0.6
				h-0.3c-0.5,0-0.9-0.1-1.3-0.3s-0.7-0.4-0.9-0.8s-0.3-0.7-0.3-1.1h0.8c0,0.5,0.1,0.8,0.5,1.1s0.7,0.4,1.3,0.4c0.5,0,1-0.1,1.4-0.4
				C360.1,920.3,360.3,920,360.3,919.6L360.3,919.6z"/>
			<path class="st2" d="M367.1,919.6c0.1-0.6-0.3-1.1-1.1-1.3l-1.1-0.3c-1.1-0.4-1.6-1-1.5-1.8c0-0.6,0.3-1.1,0.8-1.5
				s1.1-0.6,1.9-0.5c0.7,0,1.3,0.2,1.7,0.6c0.4,0.4,0.6,0.9,0.6,1.6h-0.8c0-0.4-0.1-0.8-0.4-1.1s-0.7-0.4-1.2-0.4s-0.9,0.1-1.3,0.4
				c-0.4,0.2-0.5,0.5-0.6,1c-0.1,0.6,0.3,1,1.1,1.2l0.8,0.2l0.5,0.2c1,0.4,1.5,1,1.4,1.8c0,0.6-0.3,1.1-0.8,1.4s-1.1,0.6-1.8,0.6
				H365c-0.5,0-0.9-0.1-1.3-0.3s-0.7-0.4-0.9-0.8s-0.3-0.7-0.3-1.1h0.8c0,0.5,0.1,0.8,0.5,1.1s0.7,0.4,1.3,0.4c0.5,0,1-0.1,1.4-0.4
				S367.1,920,367.1,919.6L367.1,919.6z"/>
		</g>
		<g>
			<circle class="st2" cx="338.3" cy="841.1" r="38.8"/>
			<g id="cockroach-db">
				
					<linearGradient id="SVGID_1_" gradientUnits="userSpaceOnUse" x1="319.737" y1="-602.0601" x2="356.937" y2="-602.0601" gradientTransform="matrix(1 0 0 -1 0 240.5994)">
					<stop  offset="0.2" style="stop-color:#6933FF"/>
					<stop  offset="1" style="stop-color:#1BF8EC"/>
				</linearGradient>
				<path class="st3" d="M351.9,819.5c-5,0-9.7,1.5-13.6,3.9c-3.9-2.5-8.6-3.9-13.6-3.9c-1.7,0-3.4,0.2-5,0.5l0.6,2.5
					c1.4-0.3,2.9-0.4,4.4-0.4c4.1,0,8,1.1,11.3,3c-5.7,4.6-9.4,11.7-9.4,19.6s3.7,15,9.4,19.6c0.7,0.6,1.5,1.1,2.3,1.6
					c0.8-0.5,1.5-1,2.3-1.6c5.7-4.6,9.4-11.7,9.4-19.6s-3.7-15-9.4-19.6c3.3-1.9,7.2-3,11.3-3c1.5,0,3,0.2,4.4,0.4l0.6-2.5
					C355.3,819.7,353.7,819.5,351.9,819.5L351.9,819.5z M337.1,848.6v13.2c-11.9-11-6.8-23.9-6.8-23.9c1.1,2.1,4,5,4,5
					C337.5,845.5,337.1,848.6,337.1,848.6L337.1,848.6z M339.6,861.8v-13.2c0,0-0.4-3.1,2.8-5.6c0,0,2.8-2.9,4-5
					C346.4,837.9,351.5,850.9,339.6,861.8L339.6,861.8z M338.4,843.1L338.4,843.1L338.4,843.1L338.4,843.1c-1.5-1.5-12.3-7.6,0-16.5
					l0,0l0,0l0,0l0,0C350.6,835.5,339.8,841.6,338.4,843.1z"/>
			</g>
		</g>
	</g>
	<g>
		<g>
			<line class="st4" x1="504.7" y1="78.4" x2="504.7" y2="74.4"/>
			<path class="st5" d="M504.7,66.5V49c0-2.7-2.2-4.9-5-4.9H177.1c-2.7,0-4.9,2.2-4.9,4.9v18.4"/>
			<line class="st4" x1="172.1" y1="71.4" x2="172.1" y2="75.4"/>
		</g>
		<polyline class="st6" points="497,99.9 504.7,92.2 512.4,99.9 		"/>
		<polyline class="st6" points="180.2,93.1 172.5,100.8 164.8,93.1 		"/>
	</g>
	<g>
		<path class="st2" d="M144.1,222.6c0-0.2,0-0.3,0-0.5l0.1-0.5c-0.3,0.3-0.7,0.6-1.1,0.8c-0.4,0.2-0.8,0.3-1.3,0.3
			c-0.6,0-1.1-0.2-1.4-0.6s-0.5-0.8-0.5-1.4c0-0.4,0.2-0.8,0.5-1.2s0.7-0.6,1.2-0.8s1.1-0.3,1.7-0.3h1.4l0.1-0.8
			c0.1-0.5-0.1-0.9-0.3-1.1c-0.2-0.2-0.6-0.4-1.1-0.4s-0.9,0.1-1.3,0.4c-0.4,0.3-0.6,0.6-0.7,1h-0.7c0.1-0.6,0.4-1.1,0.9-1.5
			s1.2-0.6,1.9-0.6s1.2,0.2,1.6,0.6c0.4,0.4,0.5,0.9,0.5,1.6L145,221l-0.1,0.6c0,0.2,0,0.5,0.1,0.7v0.1L144.1,222.6L144.1,222.6z
			 M141.8,222c0.5,0,0.9-0.1,1.3-0.3c0.4-0.2,0.8-0.6,1.1-1l0.3-1.5h-1.2c-0.8,0-1.4,0.1-1.9,0.4c-0.5,0.3-0.8,0.7-0.8,1.2
			c0,0.4,0.1,0.7,0.3,0.9C141.1,221.9,141.4,222,141.8,222L141.8,222z"/>
		<path class="st2" d="M149.5,222.7c-0.4,0-0.8-0.1-1.1-0.2c-0.3-0.1-0.6-0.4-0.8-0.8l-0.6,3.5h-0.8l1.7-9.5h0.7l-0.2,1
			c0.6-0.8,1.3-1.1,2.2-1.1c0.6,0,1.1,0.3,1.5,0.7c0.4,0.4,0.6,1.1,0.6,2c0,0.3,0,0.5,0,0.8v0.2c-0.1,0.7-0.3,1.4-0.6,1.9
			c-0.3,0.5-0.7,0.9-1.1,1.2C150.6,222.7,150,222.7,149.5,222.7L149.5,222.7z M151.8,219v-0.6c0-0.7-0.1-1.2-0.4-1.6
			s-0.6-0.6-1.2-0.6c-0.4,0-0.8,0.1-1.2,0.3s-0.7,0.6-0.9,1l-0.6,3.3c0.1,0.4,0.3,0.7,0.6,0.9c0.3,0.2,0.7,0.3,1.1,0.3
			c0.6,0,1.1-0.2,1.6-0.7s0.7-1.1,0.9-2L151.8,219L151.8,219z"/>
		<path class="st2" d="M154.5,222.6h-0.8l1.2-6.9h0.8C155.7,215.7,154.5,222.6,154.5,222.6z M155.2,213.7c0-0.3,0.2-0.4,0.6-0.5
			c0.2,0,0.3,0.1,0.3,0.2s0.1,0.2,0.1,0.4s-0.1,0.3-0.2,0.4c-0.1,0.1-0.2,0.1-0.4,0.2C155.3,214.2,155.2,214,155.2,213.7
			L155.2,213.7z"/>
		<path class="st2" d="M156.6,222.1c0-0.1,0.1-0.3,0.2-0.4c0.1-0.1,0.2-0.2,0.4-0.2c0.2,0,0.3,0.1,0.4,0.1c0.1,0.1,0.1,0.2,0.1,0.4
			c0,0.1-0.1,0.3-0.2,0.4c-0.1,0.1-0.2,0.1-0.4,0.1c-0.2,0-0.3,0-0.4-0.1C156.6,222.4,156.6,222.3,156.6,222.1L156.6,222.1z"/>
		<path class="st2" d="M163.9,222.6c0-0.2,0-0.3,0-0.5l0.1-0.5c-0.3,0.3-0.7,0.6-1.1,0.8c-0.4,0.2-0.8,0.3-1.3,0.3
			c-0.6,0-1.1-0.2-1.4-0.6s-0.5-0.8-0.5-1.4c0-0.4,0.2-0.8,0.5-1.2s0.7-0.6,1.2-0.8s1.1-0.3,1.7-0.3h1.4l0.1-0.8
			c0.1-0.5-0.1-0.9-0.3-1.1c-0.2-0.2-0.6-0.4-1.1-0.4s-0.9,0.1-1.3,0.4c-0.4,0.3-0.6,0.6-0.7,1h-0.7c0.1-0.6,0.4-1.1,0.9-1.5
			s1.2-0.6,1.9-0.6c0.7,0,1.2,0.2,1.6,0.6c0.4,0.4,0.5,0.9,0.5,1.6l-0.6,3.4l-0.1,0.6c0,0.2,0,0.5,0.1,0.7v0.1L163.9,222.6
			L163.9,222.6z M161.7,222c0.5,0,0.9-0.1,1.3-0.3c0.4-0.2,0.8-0.6,1.1-1l0.3-1.5h-1.2c-0.8,0-1.4,0.1-1.9,0.4
			c-0.5,0.3-0.8,0.7-0.8,1.2c0,0.4,0.1,0.7,0.3,0.9C160.9,221.9,161.3,222,161.7,222L161.7,222z"/>
		<path class="st2" d="M169.3,222.7c-0.4,0-0.8-0.1-1.1-0.2c-0.3-0.1-0.6-0.4-0.8-0.8l-0.6,3.5H166l1.7-9.5h0.7l-0.2,1
			c0.6-0.8,1.3-1.1,2.2-1.1c0.6,0,1.1,0.3,1.5,0.7s0.6,1.1,0.6,2c0,0.3,0,0.5,0,0.8v0.2c-0.1,0.7-0.3,1.4-0.6,1.9s-0.6,0.9-1.1,1.2
			C170.3,222.6,169.8,222.7,169.3,222.7L169.3,222.7z M171.7,219v-0.6c0-0.7-0.1-1.2-0.4-1.6s-0.6-0.6-1.1-0.6
			c-0.4,0-0.9,0.1-1.2,0.3c-0.4,0.2-0.7,0.6-0.9,1l-0.6,3.3c0.1,0.4,0.3,0.7,0.6,0.9c0.3,0.2,0.7,0.3,1.1,0.3c0.6,0,1.1-0.2,1.6-0.7
			s0.7-1.1,0.9-2V219L171.7,219z"/>
		<path class="st2" d="M176.4,222.7c-0.4,0-0.8-0.1-1.1-0.2c-0.4-0.2-0.6-0.4-0.9-0.8l-0.6,3.5H173l1.6-9.5h0.7l-0.2,1
			c0.6-0.8,1.3-1.1,2.2-1.1c0.6,0,1.1,0.3,1.5,0.7s0.6,1.1,0.6,2c0,0.3,0,0.5,0,0.8v0.2c-0.1,0.7-0.3,1.4-0.6,1.9s-0.6,0.9-1.1,1.2
			S176.9,222.7,176.4,222.7L176.4,222.7z M178.7,219v-0.6c0-0.7-0.1-1.2-0.4-1.6c-0.3-0.4-0.6-0.6-1.1-0.6c-0.4,0-0.9,0.1-1.2,0.3
			s-0.7,0.6-0.9,1l-0.6,3.3c0.1,0.4,0.4,0.7,0.6,0.9c0.3,0.2,0.6,0.3,1.1,0.3c0.6,0,1.1-0.2,1.6-0.7s0.7-1.1,0.9-2L178.7,219
			L178.7,219z"/>
		<path class="st2" d="M180.6,222.1c0-0.1,0.1-0.3,0.2-0.4c0.1-0.1,0.2-0.2,0.4-0.2c0.1,0,0.3,0.1,0.4,0.1c0.1,0.1,0.1,0.2,0.1,0.4
			c0,0.1-0.1,0.3-0.2,0.4c-0.1,0.1-0.2,0.1-0.4,0.1c-0.1,0-0.3,0-0.4-0.1C180.6,222.4,180.6,222.3,180.6,222.1L180.6,222.1z"/>
		<path class="st2" d="M185.5,215.7l-0.2,1.2c0.3-0.4,0.7-0.8,1.1-1c0.4-0.2,0.8-0.3,1.3-0.3c0.7,0,1.1,0.2,1.4,0.7s0.4,1.1,0.3,1.8
			l-0.8,4.5h-0.8l0.8-4.5c0-0.2,0-0.5,0-0.7c-0.1-0.8-0.5-1.1-1.2-1.2c-0.4,0-0.9,0.1-1.2,0.4s-0.7,0.7-1,1.2l-0.8,4.7h-0.8l1.2-6.9
			L185.5,215.7L185.5,215.7z"/>
		<path class="st2" d="M193.3,222.7c-0.6,0-1-0.2-1.4-0.5s-0.7-0.7-0.9-1.2s-0.3-1.1-0.2-1.7v-0.2c0.1-0.6,0.2-1.2,0.6-1.8
			s0.7-1,1.2-1.3s1-0.4,1.6-0.4c0.5,0,0.9,0.1,1.3,0.4s0.6,0.6,0.8,1.1s0.2,1,0.1,1.6l-0.1,0.5h-4.8v0.1c-0.1,0.5,0,0.9,0.1,1.3
			s0.4,0.8,0.6,1c0.3,0.2,0.7,0.4,1.1,0.4c0.4,0,0.8-0.1,1.1-0.2s0.6-0.4,0.9-0.7l0.4,0.4c-0.3,0.4-0.7,0.7-1.1,0.9
			S193.9,222.7,193.3,222.7L193.3,222.7z M194.1,216.2c-0.6,0-1,0.2-1.5,0.6s-0.8,1-1,1.7h4v-0.1c0.1-0.6,0-1.1-0.3-1.6
			C195.1,216.5,194.7,216.2,194.1,216.2L194.1,216.2z"/>
		<path class="st2" d="M199.8,213.9l-0.3,1.8h1.4l-0.1,0.6h-1.4l-0.8,4.6v0.4c0,0.5,0.2,0.7,0.6,0.7c0.1,0,0.3,0,0.6,0v0.6
			c-0.2,0.1-0.5,0.1-0.8,0.1c-0.4,0-0.8-0.2-1-0.5s-0.3-0.7-0.2-1.3l0.8-4.6h-1.2l0.1-0.6h1.2l0.3-1.8H199.8L199.8,213.9z"/>
		<path class="st2" d="M201.1,223.4h-0.7l5.5-10h0.7L201.1,223.4L201.1,223.4z"/>
	</g>
	<g>
		<path class="st2" d="M95.6,277.4h-4.8l-1.1,3h-1.5l4.3-11.4h1.3l4.3,11.4h-1.5L95.6,277.4L95.6,277.4z M91.3,276.1h3.9l-2-5.3
			L91.3,276.1z"/>
		<path class="st2" d="M107.9,275.7h-2.7v4.6h-1.5v-11.4h3.8c1.3,0,2.3,0.3,3,0.9s1,1.4,1,2.6c0,0.7-0.2,1.3-0.6,1.9
			c-0.4,0.5-0.9,0.9-1.6,1.2l2.7,4.8v0.1h-1.6L107.9,275.7L107.9,275.7z M105.3,274.5h2.3c0.7,0,1.3-0.2,1.8-0.6
			c0.5-0.4,0.7-0.9,0.7-1.6c0-0.7-0.2-1.2-0.6-1.6c-0.4-0.4-1-0.6-1.8-0.6h-2.5L105.3,274.5L105.3,274.5z"/>
		<path class="st2" d="M116.9,280.5c-1.2,0-2.1-0.4-2.8-1.1s-1.1-1.8-1.1-3v-0.3c0-0.8,0.2-1.6,0.5-2.2c0.3-0.6,0.8-1.2,1.3-1.6
			c0.6-0.4,1.2-0.6,1.9-0.6c1.1,0,1.9,0.4,2.6,1.1c0.6,0.7,0.9,1.8,0.9,3.1v0.6h-5.7c0,0.8,0.3,1.5,0.7,2c0.5,0.5,1.1,0.8,1.8,0.8
			c0.5,0,0.9-0.1,1.3-0.3c0.3-0.2,0.7-0.5,0.9-0.8l0.9,0.7C119.3,279.9,118.3,280.5,116.9,280.5L116.9,280.5z M116.7,272.9
			c-0.6,0-1.1,0.2-1.5,0.6c-0.4,0.4-0.6,1-0.7,1.8h4.2v-0.1c0-0.7-0.2-1.3-0.6-1.7C117.8,273.1,117.3,272.9,116.7,272.9L116.7,272.9
			z"/>
		<path class="st2" d="M125.2,279.3c0.5,0,1-0.2,1.3-0.5c0.3-0.3,0.6-0.7,0.6-1.2h1.4c0,0.5-0.2,0.9-0.5,1.4
			c-0.3,0.4-0.7,0.8-1.2,1.1c-0.5,0.3-1.1,0.4-1.6,0.4c-1.2,0-2.1-0.4-2.8-1.1c-0.7-0.8-1-1.8-1-3.1v-0.2c0-0.8,0.2-1.6,0.4-2.2
			c0.3-0.6,0.7-1.1,1.3-1.5c0.6-0.4,1.2-0.5,2-0.5c0.9,0,1.7,0.3,2.4,0.9c0.6,0.6,1,1.3,1,2.2h-1.3c0-0.6-0.2-1-0.6-1.4
			s-0.8-0.5-1.4-0.5c-0.7,0-1.3,0.3-1.7,0.8c-0.4,0.5-0.6,1.3-0.6,2.3v0.3c0,1,0.2,1.7,0.6,2.2S124.5,279.3,125.2,279.3L125.2,279.3
			z"/>
		<path class="st2" d="M129.8,276c0-0.8,0.2-1.6,0.5-2.2c0.3-0.7,0.8-1.2,1.4-1.5c0.6-0.3,1.2-0.5,2-0.5c1.2,0,2.1,0.4,2.8,1.2
			c0.7,0.8,1.1,1.9,1.1,3.2v0.1c0,0.8-0.2,1.6-0.5,2.2c-0.3,0.6-0.8,1.2-1.3,1.5c-0.6,0.4-1.3,0.6-2,0.6c-1.2,0-2.1-0.4-2.8-1.2
			c-0.7-0.8-1.1-1.9-1.1-3.2V276H129.8z M131.3,276.2c0,0.9,0.2,1.7,0.7,2.3c0.4,0.6,1,0.9,1.8,0.9s1.3-0.3,1.8-0.9
			c0.4-0.6,0.7-1.4,0.7-2.4c0-0.9-0.2-1.7-0.7-2.2c-0.4-0.6-1-0.9-1.8-0.9s-1.3,0.3-1.7,0.9C131.7,274.5,131.3,275.2,131.3,276.2
			L131.3,276.2z"/>
		<path class="st2" d="M143.4,273.2c-0.2,0-0.5-0.1-0.7-0.1c-0.9,0-1.6,0.4-1.9,1.2v6h-1.4v-8.4h1.4v1c0.5-0.8,1.2-1.1,2-1.1
			c0.3,0,0.5,0,0.6,0.1V273.2L143.4,273.2z"/>
		<path class="st2" d="M144.3,276c0-1.3,0.3-2.3,0.9-3.1c0.6-0.8,1.4-1.2,2.4-1.2s1.8,0.3,2.3,1v-4.4h1.4v12H150l-0.1-0.9
			c-0.6,0.7-1.4,1.1-2.4,1.1s-1.8-0.4-2.4-1.2c-0.6-0.8-0.9-1.9-0.9-3.1C144.3,276.2,144.3,276,144.3,276z M145.7,276.2
			c0,1,0.2,1.7,0.6,2.2c0.4,0.5,0.9,0.8,1.6,0.8c0.9,0,1.6-0.4,2-1.2v-3.9c-0.4-0.8-1.1-1.2-2-1.2c-0.7,0-1.3,0.3-1.7,0.8
			S145.7,275.1,145.7,276.2z"/>
		<path class="st2" d="M113.1,295.9l1.6-9.2h2.4c0.7,0,1.3,0.2,1.9,0.6c0.6,0.4,0.9,0.9,1.1,1.5s0.3,1.4,0.2,2.1l-0.1,0.8
			c-0.2,1.3-0.7,2.3-1.5,3.1c-0.8,0.8-1.8,1.2-3.1,1.2L113.1,295.9L113.1,295.9z M115.3,287.4l-1.4,7.9h1.7c0.7,0,1.2-0.1,1.8-0.4
			s1-0.7,1.3-1.2s0.6-1.1,0.7-1.8c0.1-0.7,0.2-1.1,0.2-1.4c0-0.3,0-0.5,0-0.8c-0.1-0.7-0.4-1.2-0.8-1.6c-0.4-0.4-1-0.6-1.6-0.6
			L115.3,287.4L115.3,287.4z"/>
		<path class="st2" d="M123.9,296.1c-0.6,0-1-0.2-1.4-0.5c-0.4-0.3-0.7-0.7-0.9-1.2s-0.2-1.1-0.2-1.7v-0.2c0.1-0.6,0.2-1.2,0.6-1.8
			c0.3-0.6,0.7-1,1.2-1.3c0.5-0.3,1-0.4,1.6-0.4c0.5,0,0.9,0.1,1.3,0.4c0.3,0.3,0.6,0.6,0.8,1.1c0.2,0.5,0.2,1,0.2,1.6l-0.1,0.5
			h-4.8v0.1c-0.1,0.5,0,0.9,0.1,1.3s0.3,0.8,0.6,1c0.3,0.2,0.7,0.4,1.1,0.4s0.8-0.1,1.1-0.2c0.3-0.1,0.6-0.4,0.9-0.7l0.4,0.4
			c-0.3,0.4-0.7,0.7-1.1,0.9S124.4,296.1,123.9,296.1L123.9,296.1z M124.7,289.6c-0.6,0-1,0.2-1.5,0.6c-0.5,0.4-0.8,1-1,1.7h4v-0.1
			c0.1-0.6,0-1.1-0.3-1.6S125.3,289.6,124.7,289.6L124.7,289.6z"/>
		<path class="st2" d="M128.3,295.9l1.1-6.2h-1.1l0.1-0.6h1.1l0.1-0.9c0.1-0.7,0.4-1.2,0.8-1.6c0.4-0.4,0.9-0.6,1.5-0.5
			c0.2,0,0.5,0.1,0.8,0.1l-0.1,0.6c-0.2-0.1-0.5-0.1-0.7-0.1c-0.4,0-0.8,0.1-1.1,0.4c-0.3,0.3-0.4,0.7-0.5,1.1l-0.1,0.8h1.6
			l-0.1,0.6h-1.5l-1.1,6.2L128.3,295.9L128.3,295.9z"/>
		<path class="st2" d="M136.3,295.9c0-0.2,0-0.3,0-0.5l0.1-0.5c-0.3,0.3-0.7,0.6-1.1,0.8c-0.4,0.2-0.8,0.3-1.3,0.3
			c-0.6,0-1.1-0.2-1.4-0.6c-0.3-0.4-0.5-0.8-0.5-1.4c0-0.4,0.2-0.8,0.5-1.2c0.3-0.3,0.7-0.6,1.2-0.8c0.5-0.2,1.1-0.3,1.7-0.3h1.4
			l0.1-0.8c0.1-0.5-0.1-0.9-0.3-1.1c-0.2-0.2-0.6-0.4-1.1-0.4s-0.9,0.1-1.3,0.4c-0.4,0.3-0.6,0.6-0.7,1h-0.7
			c0.1-0.6,0.4-1.1,0.9-1.5s1.2-0.6,1.9-0.6s1.2,0.2,1.6,0.6c0.4,0.4,0.5,0.9,0.5,1.6l-0.6,3.4l-0.1,0.6c0,0.2,0,0.5,0.1,0.7v0.1
			L136.3,295.9L136.3,295.9z M134,295.4c0.5,0,0.9-0.1,1.3-0.3c0.4-0.2,0.8-0.6,1.1-1l0.3-1.5h-1.2c-0.8,0-1.4,0.1-1.9,0.4
			c-0.5,0.3-0.8,0.7-0.8,1.2c0,0.4,0.1,0.7,0.3,0.9C133.3,295.3,133.6,295.4,134,295.4L134,295.4z"/>
		<path class="st2" d="M143.4,295.1c-0.6,0.7-1.3,1-2.3,1c-0.7,0-1.1-0.2-1.4-0.7s-0.4-1.1-0.3-1.9l0.7-4.4h0.8l-0.7,4.4
			c0,0.2,0,0.5,0,0.7c0,0.4,0.2,0.7,0.3,0.9c0.2,0.2,0.5,0.3,0.8,0.3c0.5,0,1-0.1,1.4-0.4c0.4-0.3,0.7-0.6,0.8-1l0.8-5h0.8l-1.2,6.9
			h-0.7L143.4,295.1L143.4,295.1z"/>
		<path class="st2" d="M146.7,295.9h-0.8l1.7-9.8h0.8L146.7,295.9z"/>
		<path class="st2" d="M151.4,287.3l-0.3,1.8h1.4l-0.1,0.6H151l-0.8,4.6v0.4c0,0.5,0.2,0.7,0.6,0.7c0.1,0,0.3,0,0.6,0v0.6
			c-0.2,0.1-0.5,0.1-0.8,0.1c-0.4,0-0.8-0.2-1-0.5c-0.2-0.3-0.3-0.7-0.2-1.3l0.8-4.6H149l0.1-0.6h1.2l0.3-1.8H151.4L151.4,287.3z"/>
	</g>
	<g>
		<path class="st2" d="M201.4,277.9h-4.8l-1.1,3h-1.6l4.3-11.4h1.3l4.4,11.4h-1.5L201.4,277.9L201.4,277.9z M197.1,276.6h3.9
			l-1.9-5.3L197.1,276.6z"/>
		<path class="st2" d="M213.7,276.2H211v4.6h-1.5v-11.4h3.8c1.3,0,2.3,0.3,3,0.9s1,1.4,1,2.6c0,0.7-0.2,1.3-0.6,1.9
			c-0.4,0.5-0.9,0.9-1.6,1.2l2.7,4.8v0.1h-1.6L213.7,276.2L213.7,276.2z M211,275h2.3c0.8,0,1.3-0.2,1.8-0.6
			c0.5-0.4,0.7-0.9,0.7-1.6c0-0.7-0.2-1.2-0.6-1.6c-0.4-0.4-1-0.6-1.8-0.6h-2.3L211,275L211,275z"/>
		<path class="st2" d="M222.6,281c-1.1,0-2.1-0.4-2.8-1.1s-1.1-1.8-1.1-3v-0.3c0-0.8,0.2-1.6,0.5-2.2c0.3-0.7,0.8-1.2,1.3-1.6
			c0.6-0.4,1.2-0.6,1.9-0.6c1.1,0,1.9,0.4,2.6,1.1c0.6,0.7,0.9,1.8,0.9,3.1v0.6h-5.7c0,0.8,0.3,1.5,0.7,2c0.5,0.5,1.1,0.8,1.8,0.8
			c0.5,0,0.9-0.1,1.3-0.3c0.4-0.2,0.7-0.5,0.9-0.8l0.9,0.7C225.1,280.4,224,281,222.6,281L222.6,281z M222.5,273.4
			c-0.6,0-1.1,0.2-1.5,0.6c-0.4,0.4-0.6,1-0.7,1.8h4.2v-0.1c0-0.7-0.2-1.3-0.6-1.7C223.6,273.6,223.1,273.4,222.5,273.4L222.5,273.4
			z"/>
		<path class="st2" d="M231,279.8c0.5,0,1-0.2,1.4-0.5c0.4-0.3,0.6-0.7,0.6-1.2h1.4c0,0.5-0.2,0.9-0.5,1.4c-0.3,0.4-0.7,0.8-1.2,1.1
			c-0.5,0.3-1.1,0.4-1.6,0.4c-1.1,0-2.1-0.4-2.8-1.1c-0.7-0.8-1-1.8-1-3.1v-0.2c0-0.8,0.1-1.6,0.4-2.2c0.3-0.6,0.7-1.1,1.3-1.5
			s1.2-0.5,2-0.5c0.9,0,1.7,0.3,2.4,0.9c0.6,0.6,1,1.3,1,2.2H233c0-0.6-0.2-1-0.6-1.4s-0.8-0.5-1.4-0.5c-0.7,0-1.3,0.3-1.7,0.8
			s-0.6,1.3-0.6,2.3v0.3c0,1,0.2,1.7,0.6,2.2C229.6,279.5,230.2,279.8,231,279.8L231,279.8z"/>
		<path class="st2" d="M235.6,276.5c0-0.8,0.2-1.6,0.5-2.2c0.3-0.7,0.8-1.2,1.4-1.5c0.6-0.3,1.2-0.5,2-0.5c1.1,0,2.1,0.4,2.8,1.2
			c0.7,0.8,1.1,1.9,1.1,3.2v0.1c0,0.8-0.2,1.6-0.5,2.2c-0.3,0.6-0.8,1.2-1.4,1.5c-0.6,0.4-1.3,0.6-2,0.6c-1.1,0-2.1-0.4-2.8-1.2
			c-0.7-0.8-1.1-1.9-1.1-3.2V276.5L235.6,276.5z M237,276.7c0,0.9,0.2,1.7,0.6,2.3c0.4,0.6,1,0.9,1.8,0.9s1.3-0.3,1.8-0.9
			c0.4-0.6,0.6-1.4,0.6-2.4c0-0.9-0.2-1.7-0.7-2.2c-0.4-0.6-1-0.9-1.8-0.9s-1.3,0.3-1.7,0.9C237.2,275,237,275.7,237,276.7
			L237,276.7z"/>
		<path class="st2" d="M249.2,273.7c-0.2,0-0.5-0.1-0.7-0.1c-0.9,0-1.6,0.4-1.9,1.2v6h-1.4v-8.4h1.4v1c0.5-0.8,1.1-1.1,2-1.1
			c0.3,0,0.5,0,0.6,0.1L249.2,273.7L249.2,273.7z"/>
		<path class="st2" d="M250,276.5c0-1.3,0.3-2.3,0.9-3.1c0.6-0.8,1.4-1.2,2.4-1.2s1.8,0.3,2.4,1v-4.4h1.4v12h-1.3l-0.1-0.9
			c-0.6,0.7-1.4,1.1-2.4,1.1s-1.8-0.4-2.4-1.2c-0.6-0.8-0.9-1.9-0.9-3.1L250,276.5L250,276.5z M251.5,276.7c0,1,0.2,1.7,0.6,2.2
			c0.4,0.5,0.9,0.8,1.6,0.8c0.9,0,1.6-0.4,2-1.2v-3.9c-0.4-0.8-1.1-1.2-2-1.2c-0.7,0-1.3,0.3-1.7,0.8
			C251.7,274.8,251.5,275.6,251.5,276.7L251.5,276.7z"/>
		<path class="st2" d="M200,292h-4.2l-0.7,3.8h4.8l-0.1,0.7h-5.6l1.6-9.2h5.6l-0.1,0.7h-4.8l-0.6,3.5h4.2L200,292L200,292z"/>
		<path class="st2" d="M205.8,295.6c-0.6,0.7-1.3,1-2.3,1c-0.6,0-1.1-0.2-1.4-0.7c-0.3-0.5-0.4-1.1-0.3-1.9l0.7-4.4h0.8l-0.7,4.4
			c0,0.2,0,0.5,0,0.7c0,0.4,0.1,0.7,0.4,0.9c0.2,0.2,0.5,0.3,0.8,0.3c0.5,0,1-0.1,1.4-0.4s0.7-0.6,0.8-1l0.9-5h0.8l-1.2,6.9h-0.7
			V295.6L205.8,295.6z"/>
		<path class="st2" d="M212.4,290.2c-0.2,0-0.3-0.1-0.5-0.1c-0.5,0-0.9,0.1-1.3,0.4c-0.4,0.3-0.7,0.7-0.8,1.1l-0.8,4.7h-0.8l1.2-6.9
			h0.7l-0.2,1.1c0.2-0.4,0.6-0.7,0.9-0.9c0.4-0.2,0.7-0.3,1.2-0.3c0.1,0,0.3,0,0.5,0.1L212.4,290.2L212.4,290.2z"/>
		<path class="st2" d="M212.6,292.9c0.1-0.7,0.3-1.3,0.6-1.8s0.7-1,1.2-1.3c0.5-0.3,1-0.4,1.6-0.4s1.1,0.2,1.4,0.5
			c0.4,0.3,0.7,0.7,0.9,1.2s0.2,1.1,0.2,1.7v0.1c-0.1,1.1-0.5,1.9-1.2,2.6s-1.4,1-2.3,0.9c-0.8,0-1.4-0.3-1.9-0.9
			c-0.5-0.6-0.7-1.3-0.7-2.2v-0.4H212.6L212.6,292.9z M213.3,293.2c-0.1,0.5,0,1,0.1,1.4s0.3,0.8,0.6,1c0.3,0.2,0.6,0.4,1.1,0.4
			s0.9-0.1,1.2-0.4s0.7-0.6,0.9-1s0.4-0.9,0.5-1.5v-0.2c0.1-0.8-0.1-1.5-0.4-2s-0.8-0.8-1.4-0.8c-0.7,0-1.3,0.2-1.8,0.8
			c-0.5,0.5-0.8,1.3-0.9,2.2L213.3,293.2L213.3,293.2z"/>
		<path class="st2" d="M222.4,296.6c-0.4,0-0.8-0.1-1.1-0.2c-0.3-0.1-0.6-0.4-0.9-0.8l-0.6,3.5H219l1.6-9.5h0.7l-0.2,1
			c0.6-0.8,1.3-1.1,2.2-1.1c0.6,0,1.1,0.3,1.5,0.7s0.5,1.1,0.6,2c0,0.3,0,0.5,0,0.8v0.2c-0.1,0.7-0.3,1.4-0.6,1.9s-0.6,0.9-1.1,1.2
			C223.3,296.4,222.9,296.6,222.4,296.6L222.4,296.6z M224.7,292.9v-0.6c0-0.7-0.1-1.2-0.4-1.6c-0.3-0.4-0.6-0.6-1.1-0.6
			c-0.4,0-0.9,0.1-1.2,0.3c-0.3,0.2-0.7,0.6-0.9,1l-0.6,3.3c0.1,0.4,0.4,0.7,0.6,0.9c0.3,0.2,0.6,0.3,1.1,0.3c0.6,0,1.1-0.2,1.6-0.7
			s0.7-1.1,0.9-2L224.7,292.9L224.7,292.9z"/>
		<path class="st2" d="M229.3,296.6c-0.6,0-1-0.2-1.4-0.5c-0.4-0.3-0.7-0.7-0.9-1.2s-0.2-1.1-0.2-1.7V293c0.1-0.6,0.2-1.2,0.6-1.8
			c0.3-0.6,0.7-1,1.2-1.3c0.5-0.3,1-0.4,1.6-0.4c0.5,0,0.9,0.1,1.3,0.4s0.6,0.6,0.8,1.1s0.2,1,0.1,1.6l-0.1,0.5h-4.8v0.1
			c-0.1,0.5,0,0.9,0.1,1.3s0.4,0.8,0.6,1c0.3,0.2,0.7,0.4,1.1,0.4c0.4,0,0.8-0.1,1.1-0.2c0.3-0.1,0.6-0.4,0.9-0.7l0.4,0.4
			c-0.3,0.4-0.7,0.7-1.1,0.9C230.2,296.5,229.8,296.6,229.3,296.6L229.3,296.6z M230.1,290.1c-0.6,0-1,0.2-1.5,0.6
			c-0.5,0.4-0.8,1-1,1.7h4v-0.1c0.1-0.6,0-1.1-0.3-1.6C231,290.3,230.6,290.1,230.1,290.1L230.1,290.1z"/>
	</g>
	<g>
		<path class="st7" d="M260.5,378.9h-2.4v-40.4c0-0.1,0-0.3-0.1-0.4s-0.2-0.2-0.3-0.3l-85.5-19.9l1.3-2l85.5,19.9
			c0.4,0.3,0.8,0.7,1.1,1.2c0.3,0.5,0.4,1,0.4,1.5V378.9L260.5,378.9z"/>
		<path class="st8" d="M85.2,378.9h2.4v-40.4c0-0.1,0-0.3,0.1-0.4s0.2-0.2,0.3-0.3l85.5-19.9l-1.3-2l-85.5,19.9
			c-0.5,0.3-0.8,0.7-1.1,1.2c-0.3,0.5-0.4,1-0.4,1.5V378.9L85.2,378.9z"/>
		<line class="st9" x1="172.8" y1="246" x2="172.8" y2="317.3"/>
		<polyline class="st10" points="94.1,371.6 86.4,379.3 78.7,371.6 		"/>
		<polyline class="st11" points="267,371.6 259.3,379.3 251.5,371.6 		"/>
	</g>
	<g>
		<path class="st2" d="M48.8,410.8H44l-1.1,3h-1.5l4.3-11.4H47l4.3,11.4h-1.4L48.8,410.8L48.8,410.8z M44.5,409.6h3.9l-1.9-5.3
			L44.5,409.6z"/>
		<path class="st2" d="M54.5,409.3v4.5H53v-11.4h4.2c1.2,0,2.2,0.3,2.9,1c0.7,0.7,1.1,1.5,1.1,2.5c0,1.1-0.4,2-1,2.5
			c-0.7,0.6-1.7,0.9-3,0.9H54.5L54.5,409.3z M54.5,408.1h2.7c0.8,0,1.4-0.2,1.8-0.6c0.4-0.4,0.6-0.9,0.6-1.6s-0.2-1.2-0.6-1.6
			c-0.4-0.4-1-0.6-1.8-0.6h-2.8L54.5,408.1L54.5,408.1z"/>
		<path class="st2" d="M64.7,413.8h-1.5v-11.4h1.5V413.8z"/>
		<path class="st2" d="M79.8,412.3c-0.4,0.5-0.9,1-1.6,1.2c-0.7,0.3-1.5,0.4-2.4,0.4s-1.8-0.2-2.5-0.6c-0.7-0.4-1.3-1-1.7-1.9
			c-0.4-0.8-0.6-1.7-0.6-2.8v-1c0-1.7,0.4-3,1.2-4c0.8-0.9,1.9-1.4,3.4-1.4c1.2,0,2.1,0.3,2.9,0.9c0.7,0.6,1.2,1.5,1.3,2.6h-1.5
			c-0.3-1.5-1.2-2.3-2.7-2.3c-1,0-1.8,0.4-2.3,1.1s-0.8,1.7-0.8,3.1v0.9c0,1.3,0.3,2.3,0.9,3c0.6,0.8,1.4,1.1,2.4,1.1
			c0.6,0,1-0.1,1.5-0.2s0.8-0.3,1-0.6v-2.5h-2.6v-1.2h4.1V412.3L79.8,412.3z"/>
		<path class="st2" d="M87.2,413.8c-0.1-0.2-0.2-0.5-0.2-0.9c-0.7,0.7-1.5,1-2.4,1c-0.8,0-1.5-0.2-2-0.7s-0.8-1.1-0.8-1.8
			c0-0.9,0.3-1.6,1-2c0.7-0.4,1.6-0.7,2.8-0.7H87V408c0-0.5-0.2-0.9-0.5-1.2c-0.3-0.3-0.8-0.5-1.3-0.5s-1,0.1-1.3,0.4
			c-0.3,0.3-0.5,0.6-0.5,1h-1.5c0-0.4,0.2-0.8,0.5-1.2c0.3-0.4,0.7-0.7,1.2-0.9c0.5-0.2,1.1-0.3,1.7-0.3c1,0,1.7,0.2,2.3,0.7
			c0.5,0.5,0.8,1.2,0.9,2v3.9c0,0.8,0.1,1.4,0.3,1.9v0.1L87.2,413.8L87.2,413.8z M84.8,412.7c0.5,0,0.9-0.1,1.3-0.4
			c0.4-0.3,0.7-0.5,0.9-0.9v-1.7h-1.1c-1.8,0-2.7,0.5-2.7,1.5c0,0.5,0.2,0.8,0.5,1.1C84,412.6,84.4,412.7,84.8,412.7L84.8,412.7z"/>
		<path class="st2" d="M92.7,403.3v2h1.6v1.1h-1.6v5.2c0,0.3,0.1,0.6,0.2,0.8c0.1,0.2,0.4,0.2,0.7,0.2c0.2,0,0.4,0,0.7-0.1v1.2
			c-0.4,0.1-0.8,0.2-1.1,0.2c-0.7,0-1.1-0.2-1.5-0.6s-0.5-1-0.5-1.7v-5.2h-1.5v-1.1h1.5v-2H92.7L92.7,403.3z"/>
		<path class="st2" d="M99.5,413.9c-1.2,0-2.1-0.4-2.8-1.1c-0.7-0.7-1.1-1.8-1.1-3v-0.3c0-0.8,0.2-1.6,0.5-2.2
			c0.3-0.6,0.8-1.2,1.3-1.5c0.6-0.4,1.2-0.6,1.9-0.6c1.1,0,2,0.4,2.6,1.1s0.9,1.8,0.9,3.1v0.6h-5.7c0,0.8,0.3,1.5,0.7,2
			c0.5,0.5,1.1,0.8,1.8,0.8c0.5,0,0.9-0.1,1.3-0.3c0.3-0.2,0.7-0.5,0.9-0.8l0.9,0.7C101.9,413.4,100.9,413.9,99.5,413.9L99.5,413.9z
			 M99.3,406.4c-0.6,0-1.1,0.2-1.5,0.6s-0.6,1-0.7,1.8h4.2v-0.1c0-0.7-0.2-1.3-0.6-1.7C100.4,406.6,99.9,406.4,99.3,406.4
			L99.3,406.4z"/>
		<path class="st2" d="M111.9,411.8l1.6-6.5h1.4l-2.5,8.5h-1.2l-2.1-6.4l-2,6.4h-0.9l-2.5-8.5h1.4l1.7,6.3l2-6.3h1.2L111.9,411.8
			L111.9,411.8z"/>
		<path class="st2" d="M121.7,413.8c-0.1-0.2-0.2-0.5-0.2-0.9c-0.7,0.7-1.5,1-2.4,1c-0.8,0-1.5-0.2-2.1-0.7
			c-0.5-0.5-0.8-1.1-0.8-1.8c0-0.9,0.3-1.6,1-2s1.6-0.7,2.8-0.7h1.4V408c0-0.5-0.2-0.9-0.4-1.2c-0.3-0.3-0.8-0.5-1.3-0.5
			s-0.9,0.1-1.3,0.4c-0.3,0.3-0.5,0.6-0.5,1h-1.4c0-0.4,0.2-0.8,0.4-1.2c0.3-0.4,0.7-0.7,1.2-0.9c0.5-0.2,1.1-0.3,1.7-0.3
			c1,0,1.7,0.2,2.3,0.7c0.6,0.5,0.8,1.2,0.9,2v3.9c0,0.8,0.1,1.4,0.3,1.9v0.1L121.7,413.8L121.7,413.8z M119.3,412.7
			c0.4,0,0.9-0.1,1.3-0.4s0.7-0.5,0.9-0.9v-1.7h-1.1c-1.8,0-2.7,0.5-2.7,1.5c0,0.5,0.2,0.8,0.4,1.1
			C118.4,412.6,118.8,412.7,119.3,412.7L119.3,412.7z"/>
		<path class="st2" d="M127.8,411.7l2-6.3h1.6l-3.4,9.8c-0.5,1.4-1.4,2.1-2.5,2.1h-0.3l-0.5-0.1V416h0.4c0.5,0,0.9-0.1,1.1-0.3
			c0.3-0.2,0.5-0.6,0.7-1.1l0.3-0.9l-3-8.4h1.6L127.8,411.7L127.8,411.7z"/>
	</g>
	<g>
		<polygon class="st8" points="87.6,562.6 85.2,562.6 85.2,525.3 87.6,525.3 		"/>
		<polyline class="st10" points="94.1,554.6 86.4,562.3 78.7,554.6 		"/>
	</g>
	<g>
		<path class="st2" d="M221.8,410.8H217l-1.1,3h-1.6l4.3-11.4h1.3l4.4,11.4h-1.5L221.8,410.8L221.8,410.8z M217.5,409.6h3.9
			l-1.9-5.3L217.5,409.6z"/>
		<path class="st2" d="M227.5,409.3v4.5H226v-11.4h4.2c1.2,0,2.2,0.3,2.9,1c0.7,0.6,1.1,1.5,1.1,2.5c0,1.1-0.4,2-1,2.5
			c-0.7,0.6-1.7,0.9-3,0.9H227.5L227.5,409.3z M227.5,408.1h2.7c0.8,0,1.4-0.2,1.8-0.6c0.4-0.4,0.6-0.9,0.6-1.6s-0.2-1.2-0.6-1.6
			s-1-0.6-1.8-0.6h-2.8v4.4H227.5z"/>
		<path class="st2" d="M237.7,413.8h-1.5v-11.4h1.5V413.8z"/>
		<path class="st2" d="M252.8,412.3c-0.4,0.5-0.9,1-1.6,1.2c-0.7,0.3-1.5,0.4-2.4,0.4s-1.8-0.2-2.5-0.6s-1.3-1-1.7-1.9
			c-0.4-0.8-0.6-1.7-0.6-2.8v-1c0-1.7,0.4-3,1.2-4s1.9-1.4,3.4-1.4c1.2,0,2.1,0.3,2.9,0.9c0.7,0.6,1.2,1.5,1.3,2.6h-1.5
			c-0.3-1.5-1.2-2.3-2.7-2.3c-1,0-1.8,0.4-2.3,1.1s-0.8,1.7-0.8,3.1v0.9c0,1.3,0.3,2.3,0.9,3c0.6,0.8,1.4,1.1,2.4,1.1
			c0.6,0,1.1-0.1,1.5-0.2s0.8-0.3,1.1-0.6v-2.5h-2.6v-1.2h4.1L252.8,412.3L252.8,412.3z"/>
		<path class="st2" d="M260.3,413.8c-0.1-0.2-0.1-0.5-0.2-0.9c-0.7,0.7-1.5,1-2.4,1c-0.8,0-1.5-0.2-2.1-0.7s-0.8-1.1-0.8-1.8
			c0-0.9,0.3-1.6,1-2s1.6-0.7,2.8-0.7h1.4V408c0-0.5-0.1-0.9-0.4-1.2s-0.8-0.5-1.3-0.5s-0.9,0.1-1.3,0.4c-0.4,0.3-0.5,0.6-0.5,1
			h-1.4c0-0.4,0.1-0.8,0.4-1.2s0.7-0.7,1.2-0.9c0.5-0.2,1.1-0.3,1.7-0.3c1,0,1.7,0.2,2.3,0.7s0.8,1.2,0.9,2v3.9
			c0,0.8,0.1,1.4,0.3,1.9v0.1L260.3,413.8L260.3,413.8z M257.9,412.7c0.4,0,0.9-0.1,1.3-0.4c0.4-0.3,0.7-0.5,0.9-0.9v-1.7H259
			c-1.8,0-2.7,0.5-2.7,1.5c0,0.5,0.1,0.8,0.4,1.1S257.4,412.7,257.9,412.7L257.9,412.7z"/>
		<path class="st2" d="M265.7,403.3v2h1.6v1.1h-1.6v5.2c0,0.3,0.1,0.6,0.2,0.8c0.1,0.2,0.4,0.2,0.7,0.2c0.2,0,0.4,0,0.7-0.1v1.2
			c-0.4,0.1-0.8,0.2-1.1,0.2c-0.6,0-1.1-0.2-1.5-0.6s-0.5-1-0.5-1.7v-5.2h-1.5v-1.1h1.5v-2H265.7L265.7,403.3z"/>
		<path class="st2" d="M272.5,413.9c-1.1,0-2.1-0.4-2.8-1.1c-0.7-0.7-1.1-1.8-1.1-3v-0.3c0-0.8,0.2-1.6,0.5-2.2
			c0.3-0.7,0.8-1.2,1.3-1.5c0.6-0.4,1.2-0.6,1.9-0.6c1.1,0,1.9,0.4,2.6,1.1c0.6,0.7,0.9,1.8,0.9,3.1v0.6h-5.7c0,0.8,0.3,1.5,0.7,2
			c0.5,0.5,1.1,0.8,1.8,0.8c0.5,0,0.9-0.1,1.3-0.3c0.4-0.2,0.7-0.5,0.9-0.8l0.9,0.7C274.9,413.4,273.9,413.9,272.5,413.9
			L272.5,413.9z M272.3,406.4c-0.6,0-1.1,0.2-1.5,0.6s-0.6,1-0.7,1.8h4.2v-0.1c0-0.7-0.2-1.3-0.6-1.7
			C273.4,406.6,272.9,406.4,272.3,406.4L272.3,406.4z"/>
		<path class="st2" d="M284.9,411.8l1.6-6.5h1.4l-2.5,8.5h-1.2l-2.1-6.4l-2,6.4h-1.2l-2.4-8.5h1.4l1.7,6.3l2-6.3h1.2L284.9,411.8
			L284.9,411.8z"/>
		<path class="st2" d="M294.7,413.8c-0.1-0.2-0.1-0.5-0.2-0.9c-0.7,0.7-1.5,1-2.4,1c-0.8,0-1.5-0.2-2.1-0.7s-0.8-1.1-0.8-1.8
			c0-0.9,0.3-1.6,1-2c0.7-0.4,1.6-0.7,2.8-0.7h1.4V408c0-0.5-0.1-0.9-0.4-1.2s-0.8-0.5-1.3-0.5s-0.9,0.1-1.3,0.4
			c-0.4,0.3-0.5,0.6-0.5,1h-1.4c0-0.4,0.1-0.8,0.4-1.2s0.7-0.7,1.2-0.9c0.5-0.2,1.1-0.3,1.7-0.3c1,0,1.7,0.2,2.3,0.7s0.8,1.2,0.9,2
			v3.9c0,0.8,0.1,1.4,0.3,1.9v0.1L294.7,413.8L294.7,413.8z M292.3,412.7c0.4,0,0.9-0.1,1.3-0.4c0.4-0.3,0.7-0.5,0.9-0.9v-1.7h-1.1
			c-1.8,0-2.7,0.5-2.7,1.5c0,0.5,0.1,0.8,0.4,1.1S291.8,412.7,292.3,412.7L292.3,412.7z"/>
		<path class="st2" d="M300.8,411.7l2-6.3h1.5l-3.4,9.8c-0.5,1.4-1.4,2.1-2.5,2.1h-0.3l-0.5-0.1V416h0.4c0.5,0,0.9-0.1,1.1-0.3
			c0.3-0.2,0.5-0.6,0.7-1.1l0.3-0.9l-3-8.4h1.6L300.8,411.7L300.8,411.7z"/>
		<path class="st2" d="M280.8,419.6h0.8"/>
		<path class="st2" d="M290.3,420.1h0.1"/>
	</g>
	<g>
		<polygon class="st7" points="260.6,562.6 258.2,562.6 258.2,525.3 260.6,525.3 		"/>
		<polyline class="st11" points="267.1,554.5 259.4,562.2 251.7,554.5 		"/>
	</g>
	<path class="st8" d="M89.1,704.1h2.4v30.4c0,0.2,0,0.3,0.1,0.4c0.1,0.1,0.2,0.2,0.3,0.3l85.5,19.9l-1.3,2l-85.5-19.9
		c-0.5-0.3-0.8-0.7-1.1-1.2c-0.3-0.5-0.4-1-0.4-1.5L89.1,704.1L89.1,704.1z"/>
	<path class="st7" d="M264.4,704.1H262v30.4c0,0.2,0,0.3-0.1,0.4c-0.1,0.1-0.2,0.2-0.3,0.3l-85.5,19.9l1.3,2l85.5-19.9
		c0.4-0.3,0.8-0.7,1.1-1.2c0.3-0.5,0.4-1,0.4-1.5V704.1L264.4,704.1z"/>
	<polyline class="st9" points="176.5,756 176.5,798.4 251.8,828.3 	"/>
	<polyline class="st6" points="247.8,818.4 252,828.5 241.9,832.7 	"/>
	<g>
		
			<linearGradient id="SVGID_00000149381164329975910440000009466456419297906598_" gradientUnits="userSpaceOnUse" x1="471.808" y1="-551.0659" x2="536.566" y2="-605.3944" gradientTransform="matrix(1 0 0 1 0 730.6898)">
			<stop  offset="0.2" style="stop-color:#6933FF"/>
			<stop  offset="1" style="stop-color:#1BF8EC"/>
		</linearGradient>
		
			<rect x="474.2" y="122.5" style="fill:url(#SVGID_00000149381164329975910440000009466456419297906598_);" width="60" height="60"/>
		<g>
			<path class="st2" d="M490.3,137.3c-0.2,0-0.4,0.1-0.5,0.2c-0.1,0.1-0.2,0.3-0.2,0.5v19.5c0,0.2,0.1,0.4,0.2,0.5
				c0.1,0.1,0.3,0.2,0.5,0.2H520c0.2,0,0.4-0.1,0.5-0.2c0.1-0.1,0.2-0.3,0.2-0.5V138c0-0.2-0.1-0.4-0.2-0.5
				c-0.1-0.1-0.3-0.2-0.5-0.2H490.3z M520,159.7h-29.7c-0.6,0-1.1-0.2-1.5-0.6c-0.4-0.4-0.6-1-0.6-1.5V138c0-0.6,0.2-1.1,0.6-1.5
				c0.4-0.4,1-0.6,1.5-0.6H520c0.6,0,1.1,0.2,1.5,0.6c0.4,0.4,0.6,1,0.6,1.5v19.5c0,0.3,0,0.6-0.2,0.8c-0.1,0.3-0.3,0.5-0.5,0.7
				s-0.4,0.4-0.7,0.5C520.6,159.6,520.3,159.7,520,159.7L520,159.7z"/>
			<path class="st2" d="M490.7,162.4c-0.3,0-0.6,0.1-0.8,0.3c-0.2,0.2-0.3,0.5-0.3,0.8v3.1c0,0.3,0.1,0.6,0.3,0.8
				c0.2,0.2,0.5,0.3,0.8,0.3h29c0.3,0,0.6-0.1,0.8-0.3c0.2-0.2,0.3-0.5,0.3-0.8v-3.1c0-0.1,0-0.3-0.1-0.4c-0.1-0.1-0.1-0.3-0.2-0.4
				c-0.1-0.1-0.2-0.2-0.4-0.2c-0.1-0.1-0.3-0.1-0.4-0.1H490.7L490.7,162.4z M519.7,169.2h-29c-0.7,0-1.3-0.3-1.8-0.8
				s-0.7-1.1-0.8-1.8v-3.1c0-0.7,0.3-1.3,0.7-1.8s1.1-0.8,1.8-0.8h29c0.7,0,1.3,0.3,1.8,0.8s0.8,1.1,0.8,1.8v3.1
				c0,0.7-0.3,1.3-0.8,1.8S520.3,169.2,519.7,169.2L519.7,169.2z"/>
			<path class="st2" d="M492.3,155.5H518V140h-25.7V155.5z M518.8,157h-27.2c-0.2,0-0.4-0.1-0.5-0.2c-0.1-0.1-0.2-0.3-0.2-0.5v-17
				c0-0.2,0.1-0.4,0.2-0.5c0.1-0.1,0.3-0.2,0.5-0.2h27.2c0.2,0,0.4,0.1,0.5,0.2c0.1,0.1,0.2,0.3,0.2,0.5v17c0,0.2-0.1,0.4-0.2,0.5
				C519.1,156.9,519,157,518.8,157z"/>
			<path class="st2" d="M510.6,163.7h8.2c0.4,0,0.7,0.3,0.7,0.7v1.4c0,0.4-0.3,0.7-0.7,0.7h-8.2c-0.4,0-0.7-0.3-0.7-0.7v-1.4
				C509.9,164,510.2,163.7,510.6,163.7z"/>
		</g>
		<g>
			<path class="st2" d="M481,202.2h-4.9v4h5.7v1.2h-7.2V196h7.1v1.2h-5.6v3.7h4.9V202.2L481,202.2z"/>
			<path class="st2" d="M484.8,199v1.1c0.6-0.8,1.5-1.2,2.5-1.2c1.8,0,2.7,1,2.7,3v5.6h-1.5v-5.7c0-0.6-0.1-1.1-0.4-1.4
				s-0.7-0.4-1.3-0.4c-0.5,0-0.9,0.1-1.2,0.4s-0.6,0.6-0.8,1v6h-1.5V199L484.8,199L484.8,199z"/>
			<path class="st2" d="M491.9,203.1c0-1.3,0.3-2.3,0.9-3.1s1.4-1.2,2.4-1.2s1.8,0.3,2.4,1v-4.4h1.5v12h-1.3l-0.1-0.9
				c-0.6,0.7-1.4,1.1-2.4,1.1s-1.8-0.4-2.4-1.2s-0.9-1.9-0.9-3.1L491.9,203.1L491.9,203.1z M493.3,203.3c0,1,0.2,1.7,0.6,2.2
				s0.9,0.8,1.6,0.8c0.9,0,1.6-0.4,2-1.2v-3.9c-0.4-0.8-1.1-1.2-2-1.2c-0.7,0-1.3,0.3-1.7,0.8S493.3,202.2,493.3,203.3L493.3,203.3z
				"/>
			<path class="st2" d="M510.4,206.6c-0.6,0.7-1.4,1-2.5,1c-0.9,0-1.6-0.3-2.1-0.8s-0.7-1.3-0.7-2.3V199h1.5v5.5
				c0,1.3,0.5,1.9,1.6,1.9s1.8-0.4,2.2-1.2v-6.1h1.5v8.4h-1.4L510.4,206.6L510.4,206.6z"/>
			<path class="st2" d="M519,205.2c0-0.4-0.1-0.7-0.4-0.9s-0.8-0.4-1.5-0.6s-1.3-0.3-1.7-0.6s-0.8-0.5-1-0.8s-0.3-0.7-0.3-1.1
				c0-0.7,0.3-1.3,0.9-1.8c0.6-0.5,1.3-0.7,2.2-0.7c1,0,1.7,0.2,2.3,0.7s0.9,1.1,0.9,1.9h-1.5c0-0.4-0.2-0.7-0.5-1s-0.8-0.4-1.3-0.4
				s-0.9,0.1-1.2,0.3c-0.3,0.2-0.5,0.5-0.5,0.9s0.1,0.6,0.4,0.8s0.8,0.4,1.5,0.5s1.3,0.4,1.8,0.6s0.8,0.5,1,0.8s0.3,0.7,0.3,1.1
				c0,0.8-0.3,1.4-0.9,1.8c-0.6,0.4-1.4,0.7-2.4,0.7c-0.7,0-1.3-0.1-1.8-0.4s-0.9-0.6-1.2-1c-0.3-0.4-0.4-0.9-0.4-1.4h1.5
				c0,0.5,0.2,0.9,0.6,1.1c0.4,0.2,0.8,0.4,1.4,0.4c0.5,0,1-0.1,1.3-0.3S519,205.6,519,205.2L519,205.2z"/>
			<path class="st2" d="M525.8,207.6c-1.1,0-2.1-0.4-2.8-1.1c-0.7-0.7-1.1-1.8-1.1-3v-0.3c0-0.8,0.2-1.6,0.5-2.2s0.8-1.2,1.3-1.6
				s1.2-0.6,1.9-0.6c1.1,0,2,0.4,2.6,1.1c0.6,0.7,0.9,1.8,0.9,3.1v0.6h-5.7c0,0.8,0.3,1.5,0.7,2s1.1,0.8,1.8,0.8
				c0.5,0,0.9-0.1,1.3-0.3c0.4-0.2,0.7-0.5,0.9-0.8l0.9,0.7C528.3,207,527.2,207.6,525.8,207.6L525.8,207.6z M525.6,200
				c-0.6,0-1.1,0.2-1.5,0.6c-0.4,0.4-0.6,1-0.7,1.8h4.2v-0.1c0-0.7-0.2-1.3-0.6-1.7C526.6,200.2,526.2,200,525.6,200L525.6,200z"/>
			<path class="st2" d="M534.8,200.3c-0.2,0-0.5-0.1-0.7-0.1c-1,0-1.6,0.4-1.9,1.2v6h-1.5V199h1.4v1c0.5-0.8,1.1-1.1,2-1.1
				c0.3,0,0.5,0,0.6,0.1v1.3H534.8z"/>
			<path class="st2" d="M495.9,223h-0.8l0.8-4.4h-5.1L490,223h-0.8l1.6-9.2h0.8l-0.7,4.1h5.1l0.7-4.1h0.8L495.9,223z"/>
			<path class="st2" d="M500.7,214.4l-0.3,1.8h1.4l-0.1,0.6h-1.4l-0.8,4.6v0.4c0,0.5,0.2,0.7,0.6,0.7c0.1,0,0.3,0,0.6,0v0.6
				c-0.2,0.1-0.5,0.1-0.8,0.1c-0.4,0-0.8-0.2-1-0.5s-0.3-0.7-0.2-1.3l0.8-4.6h-1.2l0.1-0.6h1.2l0.3-1.8H500.7L500.7,214.4z"/>
			<path class="st2" d="M504.8,214.4l-0.3,1.8h1.4l-0.1,0.6h-1.4l-0.8,4.6v0.4c0,0.5,0.2,0.7,0.6,0.7c0.1,0,0.3,0,0.6,0v0.6
				c-0.2,0.1-0.5,0.1-0.8,0.1c-0.4,0-0.8-0.2-1-0.5s-0.3-0.7-0.2-1.3l0.8-4.6h-1.2l0.1-0.6h1.2l0.3-1.8H504.8L504.8,214.4z"/>
			<path class="st2" d="M509.2,223.2c-0.4,0-0.8-0.1-1.1-0.2c-0.4-0.2-0.6-0.4-0.9-0.8l-0.6,3.5h-0.8l1.6-9.5h0.7l-0.2,1
				c0.6-0.8,1.3-1.1,2.2-1.1c0.6,0,1.1,0.3,1.5,0.7s0.5,1.1,0.6,2c0,0.3,0,0.5,0,0.8v0.2c-0.1,0.7-0.3,1.4-0.6,1.9
				c-0.3,0.5-0.6,0.9-1.1,1.2S509.7,223.2,509.2,223.2L509.2,223.2z M511.5,219.5v-0.6c0-0.7-0.1-1.2-0.4-1.6s-0.6-0.6-1.1-0.6
				s-0.9,0.1-1.2,0.3s-0.7,0.6-0.9,1l-0.6,3.3c0.1,0.4,0.4,0.7,0.6,0.9s0.6,0.3,1.1,0.3c0.6,0,1.1-0.2,1.6-0.7s0.7-1.1,0.9-2V219.5
				L511.5,219.5z"/>
			<path class="st2" d="M517.7,221.2c0.1-0.6-0.3-1-1.1-1.3l-1.1-0.3c-1-0.3-1.5-0.9-1.4-1.7c0-0.6,0.3-1,0.8-1.4s1.1-0.5,1.8-0.5
				s1.2,0.2,1.6,0.6c0.4,0.4,0.6,0.9,0.6,1.5h-0.8c0-0.4-0.1-0.7-0.4-1s-0.7-0.4-1.1-0.4c-0.5,0-0.9,0.1-1.2,0.3
				c-0.3,0.2-0.5,0.5-0.6,0.9c-0.1,0.5,0.3,0.9,1,1.1l0.8,0.2l0.4,0.1c1,0.4,1.4,0.9,1.4,1.8c0,0.6-0.3,1-0.7,1.4s-1,0.6-1.7,0.6
				h-0.3c-0.5,0-0.9-0.1-1.2-0.3c-0.3-0.2-0.7-0.4-0.9-0.7c-0.2-0.3-0.3-0.7-0.3-1.1h0.8c0,0.4,0.1,0.8,0.4,1s0.7,0.4,1.2,0.4
				s0.9-0.1,1.3-0.4C517.4,221.7,517.6,221.6,517.7,221.2L517.7,221.2z"/>
		</g>
	</g>
	<g>
		<line class="st13" x1="591.4" y1="554.4" x2="591.4" y2="534.2"/>
		<polyline class="st10" points="583.7,532.8 591.4,525.1 599.2,532.8 		"/>
		<polyline class="st10" points="599.2,554.8 591.4,562.5 583.7,554.8 		"/>
	</g>
	<g>
		<path class="st8" d="M589.7,379.6h2.4v-41.4c0-0.5-0.1-1.1-0.4-1.5c-0.3-0.5-0.6-0.9-1.1-1.2l-85-19.6l-2.4,0.6
			c0,0.2,0,0.4,0.1,0.6s0.2,0.3,0.4,0.4l85.5,19.9c0.1,0.1,0.2,0.2,0.3,0.3s0.1,0.3,0.1,0.4L589.7,379.6L589.7,379.6z"/>
		<path class="st7" d="M416.8,562.6h2.4V338.2c0-0.1,0-0.3,0.1-0.4s0.2-0.2,0.3-0.3l85.5-19.9l-1.3-2l-85.5,19.9
			c-0.5,0.3-0.8,0.7-1.1,1.2c-0.3,0.5-0.4,1-0.4,1.5V562.6L416.8,562.6z"/>
		<line class="st9" x1="504.3" y1="246" x2="504.3" y2="317.3"/>
		<polyline class="st6" points="496.6,253.4 504.4,245.7 512.1,253.4 		"/>
	</g>
	<g>
		<g>
			<path class="st7" d="M390.6,594h8.2v-8.2h-8.2V594z M401.4,596.5h-13.3v-13.3h13.3V596.5z"/>
			<path d="M390.6,609.5h8.2v-8.2h-8.2V609.5z M401.4,612.1h-13.3v-13.3h13.3V612.1z"/>
			<path class="st7" d="M390.6,625.1h8.2v-8.2h-8.2V625.1z M401.4,627.6h-13.3v-13.3h13.3V627.6z"/>
			<path d="M390.6,640.6h8.2v-8.2h-8.2V640.6z M401.4,643.2h-13.3v-13.4h13.3V643.2z"/>
			<path class="st7" d="M406.2,594h39.3v-8.2h-39.3V594z M448.1,596.5h-44.4v-13.3h44.4V596.5z"/>
			<path d="M406.2,609.5h39.3v-8.2h-39.3V609.5z M448.1,612.1h-44.4v-13.3h44.4V612.1z"/>
			<path class="st7" d="M406.2,625.1h39.3v-8.2h-39.3V625.1z M448.1,627.6h-44.4v-13.3h44.4V627.6z"/>
			<path d="M406.2,640.6h39.3v-8.2h-39.3V640.6z M448.1,643.2h-44.4v-13.4h44.4V643.2z"/>
		</g>
		<g>
			<path class="st2" d="M399,662.1h-4.9v4h5.7v1.2h-7.2v-11.4h7.1v1.2h-5.6v3.7h4.9V662.1L399,662.1z"/>
			<path class="st2" d="M409.7,656v7.7c0,1.1-0.3,2-1,2.6s-1.6,1.1-2.7,1.2h-0.4c-1.2,0-2.2-0.3-3-1c-0.7-0.7-1.1-1.6-1.1-2.8v-7.8
				h1.5v7.7c0,0.8,0.2,1.5,0.7,1.9s1.1,0.7,1.9,0.7s1.5-0.2,2-0.7s0.7-1.1,0.7-1.9v-7.7L409.7,656L409.7,656z"/>
			<path class="st2" d="M415.4,663.1c0-1.3,0.3-2.3,0.9-3.1s1.4-1.2,2.4-1.2s1.8,0.3,2.4,1v-4.4h1.5v12h-1.3l-0.1-0.9
				c-0.6,0.7-1.4,1.1-2.4,1.1s-1.8-0.4-2.4-1.2s-0.9-1.8-0.9-3.1L415.4,663.1L415.4,663.1z M416.9,663.3c0,1,0.2,1.7,0.6,2.2
				s0.9,0.8,1.6,0.8c0.9,0,1.6-0.4,2-1.2v-3.9c-0.4-0.8-1.1-1.2-2-1.2c-0.7,0-1.3,0.3-1.7,0.8S416.9,662.2,416.9,663.3L416.9,663.3z
				"/>
			<path class="st2" d="M430,667.4c-0.1-0.2-0.1-0.5-0.2-0.9c-0.7,0.7-1.5,1-2.4,1c-0.8,0-1.5-0.2-2-0.7s-0.8-1.1-0.8-1.8
				c0-0.9,0.3-1.6,1-2s1.6-0.7,2.8-0.7h1.4v-0.7c0-0.5-0.1-0.9-0.5-1.2c-0.3-0.3-0.8-0.5-1.3-0.5s-1,0.1-1.3,0.4
				c-0.4,0.3-0.5,0.6-0.5,1h-1.5c0-0.4,0.1-0.8,0.5-1.2c0.3-0.4,0.7-0.7,1.2-0.9s1.1-0.3,1.7-0.3c1,0,1.7,0.2,2.3,0.7
				c0.5,0.5,0.8,1.2,0.9,2v3.9c0,0.8,0.1,1.4,0.3,1.8v0.1L430,667.4L430,667.4z M427.6,666.3c0.5,0,0.9-0.1,1.3-0.3s0.7-0.5,0.9-0.9
				v-1.7h-1.1c-1.8,0-2.7,0.5-2.7,1.5c0,0.5,0.1,0.8,0.5,1.1C426.8,666.2,427.2,666.3,427.6,666.3L427.6,666.3z"/>
			<path class="st2" d="M435.5,656.9v2h1.6v1.1h-1.6v5.2c0,0.3,0.1,0.6,0.2,0.8s0.4,0.2,0.7,0.2c0.2,0,0.4,0,0.7-0.1v1.2
				c-0.4,0.1-0.8,0.2-1.1,0.2c-0.6,0-1.1-0.2-1.5-0.6s-0.5-1-0.5-1.7V660h-1.5v-1.1h1.5v-2L435.5,656.9L435.5,656.9z"/>
			<path class="st2" d="M444,667.4c-0.1-0.2-0.1-0.5-0.2-0.9c-0.7,0.7-1.5,1-2.4,1c-0.8,0-1.5-0.2-2-0.7s-0.8-1.1-0.8-1.8
				c0-0.9,0.3-1.6,1-2s1.6-0.7,2.8-0.7h1.4v-0.7c0-0.5-0.1-0.9-0.5-1.2c-0.3-0.3-0.8-0.5-1.3-0.5s-1,0.1-1.3,0.4
				c-0.4,0.3-0.5,0.6-0.5,1h-1.5c0-0.4,0.1-0.8,0.5-1.2c0.3-0.4,0.7-0.7,1.2-0.9s1.1-0.3,1.7-0.3c1,0,1.7,0.2,2.3,0.7
				c0.5,0.5,0.8,1.2,0.9,2v3.9c0,0.8,0.1,1.4,0.3,1.8v0.1L444,667.4L444,667.4z M441.6,666.3c0.5,0,0.9-0.1,1.3-0.3s0.7-0.5,0.9-0.9
				v-1.7h-1.1c-1.8,0-2.7,0.5-2.7,1.5c0,0.5,0.1,0.8,0.5,1.1C440.7,666.2,441.1,666.3,441.6,666.3L441.6,666.3z"/>
		</g>
	</g>
	<g>
		<g>
			<path d="M563.6,594.2h8.2V586h-8.2V594.2z M574.4,596.7h-13.3v-13.3h13.3V596.7z"/>
			<path class="st8" d="M563.6,609.7h8.2v-8.2h-8.2V609.7z M574.4,612.3h-13.3V599h13.3V612.3z"/>
			<path d="M563.6,625.3h8.2v-8.2h-8.2V625.3z M574.4,627.8h-13.3v-13.3h13.3V627.8z"/>
			<path class="st8" d="M563.6,640.8h8.2v-8.2h-8.2V640.8z M574.4,643.4h-13.3v-13.3h13.3V643.4z"/>
			<path d="M579.2,594.2h39.3V586h-39.3V594.2z M621.1,596.7h-44.4v-13.3h44.4V596.7z"/>
			<path class="st8" d="M579.2,609.7h39.3v-8.2h-39.3V609.7z M621.1,612.3h-44.4V599h44.4V612.3z"/>
			<path d="M579.2,625.3h39.3v-8.2h-39.3V625.3z M621.1,627.8h-44.4v-13.3h44.4V627.8z"/>
			<path class="st8" d="M579.2,640.8h39.3v-8.2h-39.3V640.8z M621.1,643.4h-44.4v-13.3h44.4V643.4z"/>
		</g>
		<g>
			<path class="st2" d="M556.5,668.2H555l-5.7-8.8v8.8h-1.5v-11.4h1.5l5.7,8.8v-8.8h1.5V668.2L556.5,668.2z"/>
			<path class="st2" d="M558.5,663.9c0-0.8,0.2-1.6,0.5-2.2s0.8-1.2,1.4-1.5s1.2-0.5,2-0.5c1.2,0,2.1,0.4,2.8,1.2s1.1,1.9,1.1,3.2
				v0.1c0,0.8-0.2,1.6-0.5,2.2s-0.8,1.2-1.3,1.5s-1.3,0.5-2,0.5c-1.2,0-2.1-0.4-2.8-1.2s-1.1-1.8-1.1-3.2v-0.1H558.5z M560,664
				c0,0.9,0.2,1.7,0.7,2.3s1,0.8,1.8,0.8s1.3-0.3,1.8-0.9s0.7-1.4,0.7-2.4c0-0.9-0.2-1.7-0.7-2.2s-1-0.9-1.8-0.9s-1.3,0.3-1.7,0.8
				S560,663,560,664L560,664z"/>
			<path class="st2" d="M569.4,659.7v1.1c0.7-0.8,1.5-1.2,2.5-1.2c1.8,0,2.7,1,2.7,3v5.6h-1.4v-5.6c0-0.6-0.1-1.1-0.4-1.3
				s-0.7-0.4-1.3-0.4c-0.5,0-0.9,0.1-1.2,0.4s-0.6,0.6-0.8,1v6H568v-8.5L569.4,659.7L569.4,659.7z"/>
			<path class="st2" d="M579.9,663.9h-3.8v-1.2h3.8V663.9z"/>
			<path class="st2" d="M587.9,662.9H583v4h5.7v1.2h-7.2v-11.3h7.2v1.2H583v3.7h4.9V662.9L587.9,662.9z"/>
			<path class="st2" d="M598.6,656.8v7.7c0,1.1-0.3,2-1,2.6s-1.6,1.1-2.7,1.2h-0.4c-1.2,0-2.2-0.3-3-1s-1.1-1.6-1.1-2.8v-7.7h1.5
				v7.7c0,0.8,0.2,1.5,0.7,1.9s1.1,0.7,1.9,0.7s1.5-0.2,2-0.7s0.7-1.1,0.7-1.9v-7.7H598.6L598.6,656.8z"/>
			<path class="st2" d="M604.3,663.9c0-1.3,0.3-2.3,0.9-3.1s1.4-1.2,2.4-1.2s1.8,0.3,2.3,1v-4.4h1.5v12h-1.3l-0.1-0.9
				c-0.6,0.7-1.4,1.1-2.4,1.1s-1.8-0.4-2.4-1.2s-0.9-1.8-0.9-3.1V663.9L604.3,663.9z M605.8,664c0,1,0.2,1.7,0.6,2.2
				s0.9,0.8,1.6,0.8c0.9,0,1.6-0.4,2-1.2v-3.9c-0.4-0.8-1.1-1.2-2-1.2c-0.7,0-1.3,0.3-1.7,0.8S605.8,663,605.8,664L605.8,664z"/>
			<path class="st2" d="M618.9,668.2c-0.1-0.2-0.2-0.5-0.2-0.9c-0.7,0.7-1.5,1-2.4,1c-0.8,0-1.5-0.2-2-0.7s-0.8-1.1-0.8-1.8
				c0-0.9,0.3-1.6,1-2s1.6-0.7,2.8-0.7h1.4v-0.7c0-0.5-0.2-0.9-0.5-1.2s-0.8-0.5-1.3-0.5s-1,0.1-1.3,0.4s-0.5,0.6-0.5,1h-1.5
				c0-0.4,0.2-0.8,0.5-1.2s0.7-0.7,1.2-0.9s1.1-0.3,1.7-0.3c1,0,1.7,0.2,2.3,0.7s0.8,1.2,0.9,2v3.9c0,0.8,0.1,1.4,0.3,1.8v0.1
				L618.9,668.2L618.9,668.2z M616.5,667.1c0.5,0,0.9-0.1,1.3-0.3s0.7-0.5,0.9-0.9v-1.7h-1.1c-1.8,0-2.7,0.5-2.7,1.5
				c0,0.5,0.2,0.8,0.5,1.1S616.1,667.1,616.5,667.1L616.5,667.1z"/>
			<path class="st2" d="M624.4,657.7v2h1.6v1.1h-1.6v5.2c0,0.3,0.1,0.6,0.2,0.8s0.4,0.2,0.7,0.2c0.2,0,0.4,0,0.7-0.1v1.2
				c-0.4,0.1-0.8,0.2-1.1,0.2c-0.7,0-1.1-0.2-1.5-0.6s-0.5-1-0.5-1.7v-5.2h-1.5v-1.1h1.5v-2H624.4L624.4,657.7z"/>
			<path class="st2" d="M632.9,668.2c-0.1-0.2-0.2-0.5-0.2-0.9c-0.7,0.7-1.5,1-2.4,1c-0.8,0-1.5-0.2-2-0.7s-0.8-1.1-0.8-1.8
				c0-0.9,0.3-1.6,1-2s1.6-0.7,2.8-0.7h1.4v-0.7c0-0.5-0.2-0.9-0.5-1.2s-0.8-0.5-1.3-0.5s-1,0.1-1.3,0.4s-0.5,0.6-0.5,1h-1.5
				c0-0.4,0.2-0.8,0.5-1.2s0.7-0.7,1.2-0.9s1.1-0.3,1.7-0.3c1,0,1.7,0.2,2.3,0.7s0.8,1.2,0.9,2v3.9c0,0.8,0.1,1.4,0.3,1.8v0.1
				L632.9,668.2L632.9,668.2z M630.5,667.1c0.5,0,0.9-0.1,1.3-0.3s0.7-0.5,0.9-0.9v-1.7h-1.1c-1.8,0-2.7,0.5-2.7,1.5
				c0,0.5,0.2,0.8,0.5,1.1S630,667.1,630.5,667.1L630.5,667.1z"/>
		</g>
	</g>
	<g>
		<g>
			<path d="M563.5,455.2h8.2V447h-8.2V455.2z M574.3,457.7H561v-13.3h13.3V457.7z"/>
			<path class="st8" d="M563.5,470.7h8.2v-8.2h-8.2V470.7z M574.3,473.3H561V460h13.3V473.3z"/>
			<path d="M563.5,486.3h8.2v-8.2h-8.2V486.3z M574.3,488.9H561v-13.3h13.3V488.9z"/>
			<path class="st8" d="M563.5,501.9h8.2v-8.2h-8.2V501.9z M574.3,504.4H561v-13.3h13.3V504.4z"/>
			<path d="M579.1,455.2h39.3V447h-39.3V455.2z M621,457.7h-44.4v-13.3H621V457.7z"/>
			<path class="st8" d="M579.1,470.7h39.3v-8.2h-39.3V470.7z M621,473.3h-44.4V460H621V473.3z"/>
			<path d="M579.1,486.3h39.3v-8.2h-39.3V486.3z M621,488.9h-44.4v-13.3H621V488.9z"/>
			<path class="st8" d="M579.1,501.9h39.3v-8.2h-39.3V501.9z M621,504.4h-44.4v-13.3H621V504.4z"/>
		</g>
		<g>
			<path class="st2" d="M557.2,413.6h-1.5l-5.7-8.8v8.8h-1.5v-11.4h1.5l5.7,8.8v-8.8h1.5V413.6L557.2,413.6z"/>
			<path class="st2" d="M559.2,409.3c0-0.8,0.2-1.6,0.5-2.2s0.8-1.2,1.4-1.5s1.2-0.5,2-0.5c1.2,0,2.1,0.4,2.8,1.2s1.1,1.9,1.1,3.2
				v0.1c0,0.8-0.2,1.6-0.5,2.2s-0.8,1.2-1.3,1.5s-1.3,0.5-2,0.5c-1.2,0-2.1-0.4-2.8-1.2s-1.1-1.9-1.1-3.2v-0.1H559.2z M560.7,409.5
				c0,0.9,0.2,1.7,0.7,2.3s1,0.9,1.8,0.9s1.3-0.3,1.8-0.9s0.7-1.4,0.7-2.4c0-0.9-0.2-1.7-0.7-2.2s-1-0.9-1.8-0.9s-1.3,0.3-1.7,0.9
				S560.7,408.4,560.7,409.5L560.7,409.5z"/>
			<path class="st2" d="M570.1,405.2v1.1c0.7-0.8,1.5-1.2,2.5-1.2c1.8,0,2.7,1,2.7,3v5.6h-1.5v-5.6c0-0.6-0.1-1.1-0.4-1.4
				s-0.7-0.4-1.3-0.4c-0.5,0-0.9,0.1-1.2,0.4s-0.6,0.6-0.8,1v6h-1.5v-8.5H570.1L570.1,405.2z"/>
			<path class="st2" d="M580.6,409.4h-3.8v-1.2h3.8V409.4z"/>
			<path class="st2" d="M588.6,408.4h-4.9v4h5.7v1.2h-7.2v-11.4h7.2v1.2h-5.7v3.7h4.9V408.4L588.6,408.4z"/>
			<path class="st2" d="M599.3,402.3v7.7c0,1.1-0.3,2-1,2.6s-1.6,1.1-2.7,1.1h-0.4c-1.2,0-2.2-0.3-3-1s-1.1-1.6-1.1-2.8v-7.8h1.5
				v7.7c0,0.8,0.2,1.5,0.7,1.9s1.1,0.7,1.9,0.7s1.5-0.2,2-0.7s0.7-1.1,0.7-1.9v-7.7L599.3,402.3L599.3,402.3z"/>
			<path class="st2" d="M605.1,409.3c0-1.3,0.3-2.3,0.9-3.1s1.4-1.2,2.4-1.2s1.8,0.3,2.3,1v-4.4h1.5v12h-1.3l-0.1-0.9
				c-0.6,0.7-1.4,1.1-2.4,1.1s-1.8-0.4-2.4-1.2s-0.9-1.9-0.9-3.1V409.3L605.1,409.3z M606.5,409.5c0,1,0.2,1.7,0.6,2.2
				s0.9,0.8,1.6,0.8c0.9,0,1.6-0.4,2-1.2v-3.9c-0.4-0.8-1.1-1.2-2-1.2c-0.7,0-1.3,0.3-1.7,0.8S606.5,408.4,606.5,409.5L606.5,409.5z
				"/>
			<path class="st2" d="M619.7,413.6c-0.1-0.2-0.2-0.5-0.2-0.9c-0.7,0.7-1.5,1-2.4,1c-0.8,0-1.5-0.2-2-0.7s-0.8-1.1-0.8-1.8
				c0-0.9,0.3-1.6,1-2s1.6-0.7,2.8-0.7h1.4v-0.7c0-0.5-0.2-0.9-0.5-1.2s-0.8-0.5-1.3-0.5s-1,0.1-1.3,0.4s-0.5,0.6-0.5,1h-1.5
				c0-0.4,0.2-0.8,0.5-1.2s0.7-0.7,1.2-0.9s1.1-0.3,1.7-0.3c1,0,1.7,0.2,2.3,0.7s0.8,1.2,0.9,2v3.9c0,0.8,0.1,1.4,0.3,1.9v0.1
				L619.7,413.6L619.7,413.6z M617.3,412.5c0.5,0,0.9-0.1,1.3-0.4s0.7-0.5,0.9-0.9v-1.7h-1.1c-1.8,0-2.7,0.5-2.7,1.5
				c0,0.5,0.2,0.8,0.5,1.1S616.8,412.5,617.3,412.5L617.3,412.5z"/>
			<path class="st2" d="M625.1,403.1v2h1.6v1.1h-1.6v5.2c0,0.3,0.1,0.6,0.2,0.8s0.4,0.2,0.7,0.2c0.2,0,0.4,0,0.7-0.1v1.2
				c-0.4,0.1-0.8,0.2-1.1,0.2c-0.7,0-1.1-0.2-1.5-0.6s-0.5-1-0.5-1.7v-5.2h-1.5v-1.1h1.5v-2H625.1L625.1,403.1z"/>
			<path class="st2" d="M633.6,413.6c-0.1-0.2-0.2-0.5-0.2-0.9c-0.7,0.7-1.5,1-2.4,1c-0.8,0-1.5-0.2-2-0.7s-0.8-1.1-0.8-1.8
				c0-0.9,0.3-1.6,1-2s1.6-0.7,2.8-0.7h1.4v-0.7c0-0.5-0.2-0.9-0.5-1.2s-0.8-0.5-1.3-0.5s-1,0.1-1.3,0.4s-0.5,0.6-0.5,1h-1.5
				c0-0.4,0.2-0.8,0.5-1.2s0.7-0.7,1.2-0.9s1.1-0.3,1.7-0.3c1,0,1.7,0.2,2.3,0.7s0.8,1.2,0.9,2v3.9c0,0.8,0.1,1.4,0.3,1.9v0.1
				L633.6,413.6L633.6,413.6z M631.2,412.5c0.5,0,0.9-0.1,1.3-0.4s0.7-0.5,0.9-0.9v-1.7h-1.2c-1.8,0-2.7,0.5-2.7,1.5
				c0,0.5,0.2,0.8,0.5,1.1S630.7,412.5,631.2,412.5L631.2,412.5z"/>
		</g>
	</g>
	<g>
		<path class="st8" d="M596.4,704.1H594v30.4c0,0.2,0,0.3-0.1,0.4c-0.1,0.1-0.2,0.2-0.3,0.3l-85.5,19.9l1.3,2l85.5-19.9
			c0.5-0.3,0.8-0.7,1.1-1.2s0.4-1,0.4-1.5V704.1L596.4,704.1z"/>
		<polyline class="st10" points="587.4,711.8 595.1,704.1 602.8,711.8 		"/>
	</g>
	<g>
		<path class="st7" d="M421.1,704.1h2.4v30.4c0,0.2,0,0.3,0.1,0.4c0.1,0.1,0.2,0.2,0.3,0.3l85.5,19.9l-1.3,2l-85.5-19.9
			c-0.5-0.3-0.8-0.7-1.1-1.2c-0.3-0.5-0.4-1-0.4-1.5V704.1L421.1,704.1z"/>
		<polyline class="st11" points="414.7,711.8 422.4,704.1 430.1,711.8 		"/>
	</g>
	<polyline class="st9" points="508.8,756 508.8,798.4 433.5,828.3 	"/>
	<g>
		<path class="st14" d="M172.8,140.2v-14.6"/>
		<path class="st14" d="M172.8,173.2v-11.3"/>
		<g>
			<path class="st14" d="M161.9,161.6h-9.5c1,1.7,2.2,3.2,3.6,4.6c3.3,3.3,7.6,5.6,12.2,6.5c1.5,0.3,3,0.4,4.5,0.4
				C168,173.1,164.1,168.5,161.9,161.6z"/>
			<path class="st14" d="M172.9,173.2c3.1,0,6.1-0.6,9-1.8c4.4-1.8,8.1-4.9,10.7-8.8c0.2-0.3,0.4-0.7,0.6-1h-9.5
				C181.5,168.5,177.5,173.1,172.9,173.2z"/>
			<path class="st14" d="M172.8,125.5c-4.7,0-9.3,1.4-13.2,4c-3.9,2.6-6.9,6.3-8.7,10.6h10.3C163,131.6,167.5,125.5,172.8,125.5z"/>
			<path class="st14" d="M184.5,140.2h10.3c-1.2-2.9-2.9-5.5-5.1-7.6c-2.2-2.2-4.8-4-7.7-5.2c-2.9-1.2-6-1.8-9.1-1.8
				C178.1,125.5,182.6,131.6,184.5,140.2z"/>
			<path class="st14" d="M172.8,173.2c0,0,0.1,0,0.1,0c-0.1,0-0.2,0-0.3,0C172.7,173.2,172.7,173.2,172.8,173.2z"/>
			<path class="st14" d="M194.8,140.2C194.8,140.2,194.8,140.2,194.8,140.2c1.2,3,1.9,6.1,1.9,9.2c0,4.3-1.2,8.5-3.4,12.2"/>
			<path class="st14" d="M152.3,161.6c-1.4-2.3-2.4-4.9-2.9-7.6c-0.9-4.6-0.5-9.4,1.4-13.8c0,0,0-0.1,0-0.1"/>
			<line class="st14" x1="184.5" y1="140.2" x2="161.1" y2="140.2"/>
			<line class="st14" x1="161.9" y1="161.6" x2="183.7" y2="161.6"/>
		</g>
		<g>
			<path class="st2" d="M166.4,150.9c0,3.8-2.6,6.3-6.7,6.3h-4.4v-12.6h4.4C163.8,144.6,166.4,147.1,166.4,150.9z M159.7,155.1
				c2.7,0,4.2-1.5,4.2-4.1c0-2.6-1.5-4.2-4.2-4.2h-1.8v8.3H159.7z"/>
			<path class="st2" d="M179.1,144.6v12.6h-2.5l-5.7-8.7v8.7h-2.5v-12.6h2.5l5.7,8.7v-8.7H179.1z"/>
			<path class="st2" d="M186,157.4c-2.6,0-4.7-1.4-4.7-3.8h2.7c0.1,1,0.7,1.7,1.9,1.7c1.2,0,1.9-0.6,1.9-1.5c0-2.7-6.5-1.1-6.5-5.7
				c0-2.3,1.8-3.7,4.5-3.7c2.6,0,4.4,1.3,4.5,3.6h-2.8c-0.1-0.8-0.7-1.5-1.8-1.5c-1,0-1.7,0.5-1.7,1.5c0,2.5,6.5,1.1,6.5,5.6
				C190.5,155.6,188.9,157.4,186,157.4z"/>
		</g>
	</g>
	<text transform="matrix(1 0 0 1 143.7391 204.923)" class="st2 st15 st16">Domain</text>
	<g>
		<g>
			<polyline class="st17" points="57.9,460.9 57.9,452.3 109,452.3 109,459.8 65.8,459.8 			"/>
			<line class="st17" x1="109" y1="487.7" x2="109" y2="463"/>
			<polyline class="st17" points="57.9,463 57.9,499 93.8,499 			"/>
			<line class="st17" x1="82.4" y1="459.8" x2="84.5" y2="459.8"/>
		</g>
		<line class="st17" x1="79.5" y1="482.1" x2="71.2" y2="482.1"/>
		<polyline class="st17" points="65.8,468 70.6,473.2 65.8,478.4 		"/>
	</g>
	<g>
		<circle class="st17" cx="109" cy="498.1" r="3"/>
		<path class="st17" d="M120.6,495.7l0.9-0.6c-0.3-1.3-0.8-2.6-1.5-3.7l-1.1,0.2c-2,0.5-3.9-1.4-3.4-3.4l0.2-1.1
			c-1.1-0.7-2.4-1.2-3.7-1.5l-0.6,0.9c-1.1,1.8-3.7,1.8-4.8,0l-0.6-0.9c-1.3,0.3-2.6,0.8-3.7,1.5l0.2,1.1c0.5,2-1.4,3.9-3.4,3.4
			l-1.1-0.2c-0.7,1.1-1.2,2.4-1.5,3.7l0.9,0.6c1.8,1.1,1.8,3.7,0,4.8l-0.9,0.6c0.3,1.3,0.8,2.6,1.5,3.7l1.1-0.2
			c2-0.5,3.9,1.4,3.4,3.4l-0.2,1.1c1.1,0.7,2.4,1.2,3.7,1.5l0.6-0.9c1.1-1.8,3.7-1.8,4.8,0l0.6,0.9c1.3-0.3,2.6-0.8,3.7-1.5
			l-0.2-1.1c-0.5-2,1.4-3.9,3.4-3.4l1.1,0.2c0.7-1.1,1.2-2.4,1.5-3.7l-0.9-0.6C118.8,499.4,118.8,496.8,120.6,495.7z"/>
		<circle class="st17" cx="109" cy="498.1" r="3"/>
		<path class="st17" d="M120.6,495.7l0.9-0.6c-0.3-1.3-0.8-2.6-1.5-3.7l-1.1,0.2c-2,0.5-3.9-1.4-3.4-3.4l0.2-1.1
			c-1.1-0.7-2.4-1.2-3.7-1.5l-0.6,0.9c-1.1,1.8-3.7,1.8-4.8,0l-0.6-0.9c-1.3,0.3-2.6,0.8-3.7,1.5l0.2,1.1c0.5,2-1.4,3.9-3.4,3.4
			l-1.1-0.2c-0.7,1.1-1.2,2.4-1.5,3.7l0.9,0.6c1.8,1.1,1.8,3.7,0,4.8l-0.9,0.6c0.3,1.3,0.8,2.6,1.5,3.7l1.1-0.2
			c2-0.5,3.9,1.4,3.4,3.4l-0.2,1.1c1.1,0.7,2.4,1.2,3.7,1.5l0.6-0.9c1.1-1.8,3.7-1.8,4.8,0l0.6,0.9c1.3-0.3,2.6-0.8,3.7-1.5
			l-0.2-1.1c-0.5-2,1.4-3.9,3.4-3.4l1.1,0.2c0.7-1.1,1.2-2.4,1.5-3.7l-0.9-0.6C118.8,499.4,118.8,496.8,120.6,495.7z"/>
	</g>
	<g>
		<g>
			<polyline class="st17" points="228.2,460.9 228.2,452.3 279.3,452.3 279.3,459.8 236.1,459.8 			"/>
			<line class="st17" x1="279.3" y1="487.7" x2="279.3" y2="463"/>
			<polyline class="st17" points="228.2,463 228.2,499 264.1,499 			"/>
			<line class="st17" x1="252.7" y1="459.8" x2="254.8" y2="459.8"/>
		</g>
		<line class="st17" x1="249.8" y1="482.1" x2="241.6" y2="482.1"/>
		<polyline class="st17" points="236.1,468 240.9,473.2 236.1,478.4 		"/>
	</g>
	<g>
		<circle class="st17" cx="279.3" cy="498.1" r="3"/>
		<path class="st17" d="M290.9,495.7l0.9-0.6c-0.3-1.3-0.8-2.6-1.5-3.7l-1.1,0.2c-2,0.5-3.9-1.4-3.4-3.4l0.2-1.1
			c-1.1-0.7-2.4-1.2-3.7-1.5l-0.6,0.9c-1.1,1.8-3.7,1.8-4.8,0l-0.6-0.9c-1.3,0.3-2.6,0.8-3.7,1.5l0.2,1.1c0.5,2-1.4,3.9-3.4,3.4
			l-1.1-0.2c-0.7,1.1-1.2,2.4-1.5,3.7l0.9,0.6c1.8,1.1,1.8,3.7,0,4.8l-0.9,0.6c0.3,1.3,0.8,2.6,1.5,3.7l1.1-0.2
			c2-0.5,3.9,1.4,3.4,3.4l-0.2,1.1c1.1,0.7,2.4,1.2,3.7,1.5l0.6-0.9c1.1-1.8,3.7-1.8,4.8,0l0.6,0.9c1.3-0.3,2.6-0.8,3.7-1.5
			l-0.2-1.1c-0.5-2,1.4-3.9,3.4-3.4l1.1,0.2c0.7-1.1,1.2-2.4,1.5-3.7l-0.9-0.6C289.1,499.4,289.1,496.8,290.9,495.7z"/>
		<circle class="st17" cx="279.3" cy="498.1" r="3"/>
		<path class="st17" d="M290.9,495.7l0.9-0.6c-0.3-1.3-0.8-2.6-1.5-3.7l-1.1,0.2c-2,0.5-3.9-1.4-3.4-3.4l0.2-1.1
			c-1.1-0.7-2.4-1.2-3.7-1.5l-0.6,0.9c-1.1,1.8-3.7,1.8-4.8,0l-0.6-0.9c-1.3,0.3-2.6,0.8-3.7,1.5l0.2,1.1c0.5,2-1.4,3.9-3.4,3.4
			l-1.1-0.2c-0.7,1.1-1.2,2.4-1.5,3.7l0.9,0.6c1.8,1.1,1.8,3.7,0,4.8l-0.9,0.6c0.3,1.3,0.8,2.6,1.5,3.7l1.1-0.2
			c2-0.5,3.9,1.4,3.4,3.4l-0.2,1.1c1.1,0.7,2.4,1.2,3.7,1.5l0.6-0.9c1.1-1.8,3.7-1.8,4.8,0l0.6,0.9c1.3-0.3,2.6-0.8,3.7-1.5
			l-0.2-1.1c-0.5-2,1.4-3.9,3.4-3.4l1.1,0.2c0.7-1.1,1.2-2.4,1.5-3.7l-0.9-0.6C289.1,499.4,289.1,496.8,290.9,495.7z"/>
	</g>
	<text transform="matrix(1 0 0 1 63.2701 429.2303)" class="st2 st18 st19">US East</text>
	<text transform="matrix(1 0 0 1 566.6249 429.2303)" class="st2 st18 st19">US West</text>
	<text transform="matrix(1 0 0 1 229.9075 429.2303)" class="st2 st18 st19">EU Central</text>
	<text transform="matrix(1 0 0 1 68.2701 683.7784)" class="st2 st18 st19">US East</text>
	<text transform="matrix(1 0 0 1 573.3702 683.7784)" class="st2 st18 st19">US East</text>
	<text transform="matrix(1 0 0 1 234.8573 683.7783)" class="st2 st18 st19">EU Central</text>
	<text transform="matrix(1 0 0 1 389.6573 683.7783)" class="st2 st18 st19">EU Central</text>
	<text transform="matrix(1 0 0 1 21.8447 668.1408)" class="st2 st15 st20">Serverless function</text>
	<text transform="matrix(1 0 0 1 195.9447 668.1408)" class="st2 st15 st20">Serverless function</text>
	<polyline class="st21" points="89.5,601.5 59.1,601.5 59.1,584.8 114.9,584.8 114.9,601.5 95.5,601.5 	"/>
	<polyline class="st21" points="80.2,619.8 59.1,619.8 59.1,605.3 	"/>
	<polyline class="st21" points="114.9,605.3 114.9,619.8 87,619.8 	"/>
	<line class="st21" x1="59.1" y1="638.1" x2="59.1" y2="623.6"/>
	<polyline class="st21" points="114.9,623.6 114.9,638.1 65.3,638.1 	"/>
	<path class="st21" d="M66,632.6c-1.1-0.9-1.3-2.5-0.4-3.6s2.5-1.3,3.6-0.4"/>
	<line class="st21" x1="114.9" y1="577.2" x2="59.1" y2="645.7"/>
	<circle class="st21" cx="67.6" cy="612" r="2.6"/>
	<circle class="st21" cx="67.6" cy="593.2" r="2.6"/>
	<line class="st21" x1="99.7" y1="612" x2="109.8" y2="612"/>
	<line class="st21" x1="106.1" y1="593.7" x2="109.8" y2="593.7"/>
	<line class="st21" x1="99.7" y1="630.3" x2="109.8" y2="630.3"/>
	<polyline class="st21" points="261.8,601.5 231.3,601.5 231.3,584.8 287.1,584.8 287.1,601.5 267.7,601.5 	"/>
	<polyline class="st21" points="252.4,619.8 231.3,619.8 231.3,605.3 	"/>
	<polyline class="st21" points="287.1,605.3 287.1,619.8 259.2,619.8 	"/>
	<line class="st21" x1="231.3" y1="638.1" x2="231.3" y2="623.6"/>
	<polyline class="st21" points="287.1,623.6 287.1,638.1 237.5,638.1 	"/>
	<path class="st21" d="M238.3,632.6c-1.1-0.9-1.3-2.5-0.4-3.6s2.5-1.3,3.6-0.4"/>
	<line class="st21" x1="287.1" y1="577.2" x2="231.3" y2="645.7"/>
	<circle class="st21" cx="239.9" cy="612" r="2.6"/>
	<circle class="st21" cx="239.9" cy="593.2" r="2.6"/>
	<line class="st21" x1="271.9" y1="612" x2="282.1" y2="612"/>
	<line class="st21" x1="278.3" y1="593.7" x2="282.1" y2="593.7"/>
	<line class="st21" x1="271.9" y1="630.3" x2="282.1" y2="630.3"/>
	<rect x="493.7" y="288.7" class="st22" width="20.2" height="18.6"/>
	<rect x="493.7" y="263.4" class="st22" width="20.2" height="19.3"/>
	<g>
		<line class="st23" x1="511.8" y1="290.8" x2="496.2" y2="305.4"/>
		<polyline class="st23" points="510.4,292.2 510.4,296.2 506.1,296.2 		"/>
		<polyline class="st23" points="501.8,300.2 510.4,300.2 510.4,296.2 		"/>
		<polyline class="st23" points="501.8,300.2 510.4,300.2 510.4,304.1 500.5,304.1 		"/>
		<polyline class="st23" points="507.3,292 500.5,292 497.7,292 497.7,294.8 497.7,304.1 		"/>
		<line class="st23" x1="508.8" y1="302.1" x2="506.3" y2="302.1"/>
		<line class="st23" x1="508.8" y1="298.2" x2="506.3" y2="298.2"/>
		<path class="st23" d="M507.3,298.2"/>
		<path class="st23" d="M508.5,298.2"/>
		<line class="st23" x1="497.7" y1="300.2" x2="499.4" y2="300.2"/>
		<line class="st23" x1="497.7" y1="296.2" x2="502.8" y2="296.2"/>
		<circle class="st23" cx="499.8" cy="294" r="0.2"/>
		<circle class="st23" cx="499.8" cy="298.2" r="0.2"/>
	</g>
	<g>
		<polyline class="st23" points="502.7,277.6 497.1,277.6 497.1,266.4 508.3,266.4 508.3,272 		"/>
		<line class="st23" x1="503.7" y1="272.9" x2="500.7" y2="272.9"/>
		<polyline class="st23" points="499.6,268 501.4,269.8 499.6,271.6 		"/>
	</g>
	<g>
		<path class="st23" d="M511.9,276.5c-0.1-0.4-0.2-0.7-0.4-1.1c-0.9,0.2-1.4-0.4-1.2-1.2c-0.3-0.2-0.7-0.4-1.1-0.4
			c-0.5,0.7-1.2,0.7-1.7,0c-0.4,0.1-0.7,0.2-1.1,0.4c0.2,0.9-0.4,1.4-1.2,1.2c-0.2,0.3-0.4,0.7-0.4,1.1c0.7,0.5,0.7,1.2,0,1.7
			c0.1,0.4,0.2,0.7,0.4,1.1c0.9-0.2,1.4,0.4,1.2,1.2c0.3,0.2,0.7,0.4,1.1,0.4c0.5-0.7,1.2-0.7,1.7,0c0.4-0.1,0.7-0.2,1.1-0.4
			c-0.2-0.9,0.4-1.4,1.2-1.2c0.2-0.3,0.4-0.7,0.4-1.1C511.1,277.8,511.1,277,511.9,276.5z"/>
		<path class="st23" d="M509,277.4c0-0.4-0.3-0.7-0.7-0.7c-0.4,0-0.7,0.3-0.7,0.7c0,0.4,0.3,0.7,0.7,0.7
			C508.7,278,509,277.7,509,277.4z"/>
	</g>
</g>
</svg>
